<svg width="309" height="158.00000000000003" xmlns="http://www.w3.org/2000/svg" version="1.1" enable-background="new 0 0 309 158" xml:space="preserve">
 <g>
  <title>Layer 1</title>
  <path fill="#272425" d="m275,105.0032c-86.13376,0 -171.76751,0 -257.70239,0c0,-15.63335 0,-31.0453 0,-46.81774c93.72628,0 187.57051,0 281.64505,0c0,15.48896 0,30.90113 0,46.81775c-7.87635,0 -15.65949,0 -23.94266,-0.00001m-112.14067,-15.3575c5.73572,9.87097 5.73572,9.87097 17.96661,7.8457c-3.46249,-5.03531 -6.71052,-9.75877 -9.90405,-14.40295c5.37642,-2.29056 7.66774,-5.46626 7.03359,-10.14221c-0.62508,-4.60899 -4.04667,-7.55292 -10.07223,-7.77617c-7.61839,-0.28228 -15.2552,-0.06817 -23.05766,-0.06817c0,11.06358 0,21.92121 0,32.71486c3.90254,0 7.45322,0 11.27112,0c0,-4.46249 0,-8.57397 0,-12.68546c0.41142,-0.33518 0.82286,-0.67037 1.23428,-1.00555c1.69632,1.63426 3.39264,3.26852 5.52834,5.51995m-108.61273,-5.63786c6.15032,0.3819 2.72429,-3.91126 3.69628,-6.90748c-6.30034,0 -12.02427,0 -17.67509,0c0,-1.98266 0,-3.38669 0,-5.15746c6.34415,0 12.44059,0 18.68424,0c0,-2.43626 0,-4.4971 0,-6.75385c-10.14046,0 -20.06043,0 -30.09841,0c0,11.01849 0,21.87208 0,32.69489c10.46643,0 20.54965,0 30.69805,0c0,-2.52032 0,-4.74347 0,-7.37289c-6.54471,0 -12.80853,0 -19.30359,0c0,-2.30951 0,-4.21113 0,-6.50317c4.47263,0 8.76319,0 13.99852,-0.00004m161.23864,-17.24495c-0.28797,-0.5392 -0.57206,-1.54731 -0.86448,-1.54973c-9.89565,-0.08175 -19.79209,-0.0679 -29.4473,-0.0679c0,11.32782 0,22.06639 0,32.73976c10.41074,0 20.48278,0 30.56984,0c0,-2.52564 0,-4.76975 0,-7.63976c-6.61975,0 -12.99814,0 -19.31004,0c0,-2.3836 0,-4.1331 0,-6.37092c5.99473,0 11.73576,0 17.31392,0c0,-2.43466 0,-4.37168 0,-6.86462c-5.96367,0 -11.69303,0 -17.68073,0c0.16246,-1.98502 0.27672,-3.38107 0.41898,-5.11931c6.42184,0 12.51599,0 19.01347,0c0,-1.66479 0,-2.9606 -0.01366,-5.12752m59.25976,25.38569c-2.2941,-1.52982 -4.58823,-3.05964 -6.88233,-4.58947c0.16895,-0.31599 0.33789,-0.63199 0.50684,-0.948c-3.39661,0.18794 -6.79322,0.37587 -11.48484,0.63546c2.19867,3.35622 3.42948,6.40098 5.62796,8.35949c5.34778,4.76407 19.93711,4.23649 25.46976,-0.47743c5.7905,-4.93362 5.01837,-12.68627 -1.89728,-15.88467c-3.41861,-1.58106 -7.31036,-2.11992 -10.953,-3.24398c-1.75211,-0.54068 -3.42291,-1.34482 -5.4628,-2.1629c2.6496,-3.95966 6.24368,-4.09101 8.06311,-1.83048c3.9079,4.85536 8.06159,2.38915 12.82092,1.39603c-1.67822,-2.84428 -3.41876,-5.96507 -6.03411,-7.14232c-6.1073,-2.74906 -12.87824,-2.83653 -18.8917,0.02619c-2.656,1.2644 -5.08148,4.78494 -5.87362,7.74616c-0.99994,3.73788 1.96991,6.59476 5.43673,7.96182c3.3761,1.33127 7.07059,1.85756 10.44089,3.20015c1.78482,0.71099 3.17755,2.4062 4.74728,3.6571c-1.60131,1.10205 -3.20263,2.2041 -5.63381,3.29685m-53.22124,-0.37517c4.43484,6.47864 15.08179,9.05522 24.26358,5.87182c4.99472,-1.7317 8.26516,-5.70322 8.20158,-10.16038c-0.07721,-5.41228 -3.69581,-7.91946 -8.23095,-9.34304c-3.31353,-1.04011 -6.81473,-1.48481 -10.12267,-2.53888c-1.13345,-0.36119 -1.93436,-1.76602 -2.88721,-2.69405c1.18044,-0.68702 2.30005,-1.74734 3.55901,-1.95249c1.17843,-0.19201 3.15631,0.10894 3.66051,0.9042c3.43081,5.41147 8.01799,2.39417 12.57733,2.36592c-0.61502,-4.91962 -3.22367,-8.05307 -7.41454,-8.59429c-5.16861,-0.6675 -10.55646,-0.67775 -15.72201,0.00001c-4.13965,0.54315 -7.19268,3.42206 -7.54905,8.0659c-0.36962,4.81666 2.72748,7.35093 6.64332,8.83203c3.39138,1.28272 7.12173,1.68494 10.48165,3.02813c1.51243,0.60462 2.48781,2.55263 3.70687,3.8911c-1.63227,0.89962 -3.27954,2.53831 -4.89287,2.50552c-1.87587,-0.03811 -4.80667,-1.10928 -5.35854,-2.4964c-1.20372,-3.02568 -3.01811,-2.92245 -5.4412,-2.65954c-2.13524,0.23169 -4.29575,0.2305 -6.69388,0.3439c0.31357,1.43128 0.58972,2.69169 1.21907,4.63054m-142.23653,0.98774c1.11176,-1.53562 2.2235,-3.07125 3.54605,-4.89802c2.69377,3.62823 4.42518,8.07318 7.57876,9.6215c3.24012,1.5908 7.86905,0.35292 12.48661,0.35292c-3.41149,-4.62777 -6.20439,-8.95676 -9.55937,-12.79437c-2.62416,-3.00165 -2.32861,-5.17589 0.06519,-8.05249c3.01198,-3.61947 5.58616,-7.60327 8.25989,-11.30612c-9.37742,-3.21777 -14.76425,1.1517 -18.62751,10.50837c-3.70245,-9.67905 -9.27949,-13.56815 -18.41785,-10.39831c2.86302,3.96511 5.38105,7.90207 8.36883,11.4426c2.23551,2.64908 2.35095,4.54974 0.05714,7.26892c-3.47884,4.12395 -6.48793,8.64417 -10.33413,13.86074c6.4222,-0.99744 12.91907,2.5637 16.57639,-5.60574m27.55506,2.63493c0.77503,0.91936 1.46984,2.53063 2.33977,2.63148c2.88906,0.33495 5.84111,0.12661 9.15861,0.12661c0,-4.38841 0,-8.14054 0,-11.8409c4.03611,-0.30602 7.72648,-0.23079 11.26278,-0.93229c6.21384,-1.23263 8.82602,-4.85328 8.5421,-10.92534c-0.24702,-5.28319 -3.32858,-8.83425 -9.23742,-9.20007c-7.23742,-0.44808 -14.52371,-0.10679 -22.06649,-0.10679c0,10.01633 0,19.63914 0.00065,30.2473z" id="svg_5"/>
  <path fill="#1893C7" d="m276.92096,151.13277c-0.40988,-0.35895 -0.81976,-0.71788 -1.58728,-1.30187c-0.35761,-0.22502 -0.51306,-0.53929 -0.58673,-0.89633c-3.24173,-3.56602 -5.13532,-1.45978 -6.8783,1.27455c-4.69415,-4.66421 -9.38827,-9.32843 -14.55319,-14.45833c-2.74426,-2.94595 -3.02852,-1.22542 -3.04568,0.7932c-0.03711,4.36736 -0.01143,8.73525 -0.01143,13.5771c-4.26615,0 -7.7112,0 -11.15624,0c-0.88431,-0.7001 -2.5283,-1.38853 -2.53927,-2.10205c-0.1715,-11.16064 -0.13245,-22.32451 -0.14126,-33.48764c-0.00154,-1.95586 -0.00019,-3.91172 -0.00019,-6.20464c8.18501,0 15.85554,-0.53828 23.3894,0.24248c3.41946,0.35436 6.56799,3.32312 10.12146,5.6763c0.59146,0.95472 0.90094,1.33905 1.21042,1.72338c0,0 -0.08417,-0.00215 -0.1951,0.37962c0.86511,6.53518 -1.40295,11.18035 -7.26401,14.17844c1.40354,1.10115 2.29743,1.80247 3.19132,2.50378c2.98239,2.80599 5.96475,5.61199 9.02295,8.70557c0.0758,0.28761 -0.11341,0.22601 -0.36695,0.40298c-0.68173,1.06972 -1.10995,1.96247 -1.67382,2.91098c-0.04093,0.02277 0.05371,-0.01027 0.48431,-0.0133c1.4873,-0.05443 2.63867,-0.13886 4.07538,-0.21067c0.66894,-0.33468 1.05258,-0.682 1.43619,-1.02931c4.06253,-1.47683 3.16702,-4.67448 2.94101,-7.8555c-0.39621,-5.57684 -1.15882,-11.25551 -0.52695,-16.74878c1.05508,-9.17289 13.81732,-14.95341 21.79379,-8.80516c-5.12976,0.9597 -8.77341,3.43745 -9.94455,7.92714c-1.01721,3.89954 -1.3107,8.20107 -0.90045,12.22048c1.32498,12.981 -3.54227,19.38409 -16.29483,20.59758m-23.98041,-23.12075c7.02176,-2.2415 8.48053,-5.88415 3.89527,-10.86672c-2.12203,-0.82665 -4.24407,-1.6533 -7.02424,-2.73633c0,4.59844 -0.13954,8.06398 0.10933,11.50139c0.05443,0.7517 1.4943,1.40308 3.01964,2.10166z" id="svg_6"/>
  <path fill="#8CC346" d="m73.61221,51.1352c-4.78955,-4.7359 -9.5791,-9.47181 -14.88846,-14.56564c-0.98764,-1.18843 -1.45549,-2.01894 -1.92333,-2.84945c-0.29101,0.09917 -0.58201,0.19834 -0.87302,0.29751c0,5.50545 0,11.01089 0,17.09562c-3.96065,0 -7.52535,0 -11.09004,0c-3.09941,0.33947 -2.85483,-1.74992 -2.84894,-3.80123c0.02654,-9.23825 0.00009,-18.47665 -0.00932,-28.61366c-0.0343,-3.57996 -0.06656,-6.26124 -0.09882,-8.94253c0.91319,-0.86701 1.80756,-2.46092 2.74256,-2.48513c6.9914,-0.18098 14.0328,-0.48673 20.96824,0.18247c3.01348,0.29076 5.81424,2.78616 9.07855,4.69773c0.68299,0.75025 0.99904,1.083 1.3151,1.41574c0,0 0.18014,0.26009 0.06435,0.758c1.70408,7.24415 -0.34374,12.49597 -6.95804,16.14842c1.45119,1.03476 2.34837,1.67449 3.24555,2.31422c3.23591,3.23766 6.47181,6.47533 9.60237,10.0806c-2.84582,3.00085 -5.58628,5.63409 -8.32675,8.26733m-10.60399,-34.1433c0,0 -0.0037,0.12163 -0.22602,-0.58426c-2.32302,-0.87311 -4.64605,-1.74622 -7.70485,-2.89587c0,4.78731 -0.19203,8.43065 0.13657,12.0264c0.081,0.88627 1.85682,1.61765 3.57081,2.41505c6.11511,-2.66967 7.25049,-4.89443 4.91218,-10.50226c-0.24562,-0.19787 -0.51567,-0.35327 -0.68869,-0.45906z" id="svg_7"/>
  <path fill="#8BC444" d="m123.9903,19.02223c0,0 -0.00595,0.41019 -0.27575,0.80861c4.47081,15.88894 -3.69015,28.91591 -19.4579,30.6552c-3.39961,0.375 -6.91121,-0.26517 -10.37123,-0.43772c-8.66958,-5.71145 -14.15964,-13.1604 -13.11741,-24.83322c0.05412,-0.86916 0.03459,-1.04389 0.01505,-1.21863c5.66637,-18.40379 24.04331,-23.59359 38.22793,-10.80003c0.61514,0.55481 1.2757,1.05927 2.2158,2.02906c0.79489,0.95658 1.28907,1.47128 1.78326,1.98599c0.04582,0.16673 0.09165,0.33346 0.26072,0.90048c0.25606,0.64725 0.45483,0.81723 0.71953,0.91026m-18.04563,-2.86718c-3.66166,-3.72061 -6.41095,-3.56719 -9.0969,0.36569c-3.12728,4.57908 -3.63187,16.18101 1.44083,22.12713c0.69481,1.04569 1.2929,2.17407 2.10276,3.12141c2.33616,2.73276 4.99202,3.20706 7.74289,0.64006c5.75617,-5.37138 4.38331,-20.91467 -2.18958,-26.25429z" id="svg_8"/>
  <path fill="#1993C8" d="m169.94391,132.52365c2.96794,3.06418 5.93588,6.12834 8.8565,9.76895c-2.71235,3.02376 -5.37739,5.47109 -8.04243,7.91843c-4.68764,-4.63278 -9.37529,-9.26556 -14.52342,-14.32153c-1.12679,-1.03364 -1.79311,-1.64408 -3.33685,-3.05838c0,6.31692 0,11.6 0,17.30552c-4.08275,0 -7.51945,0 -10.95615,0c-0.92593,-0.8165 -2.64781,-1.62254 -2.65871,-2.45108c-0.17007,-12.93631 -0.11911,-25.87552 -0.11911,-38.90382c8.75907,0 17.20246,-0.57557 25.49503,0.29141c3.18892,0.3334 6.03441,3.95168 8.95491,6.55703c1.03151,6.78137 -0.81395,11.78996 -7.60591,15.00715c1.9635,0.94098 2.94983,1.41365 3.93614,1.88632m-13.994,-4.51833c6.18034,-2.21939 7.51281,-4.69245 4.77258,-10.15129c-2.49631,-1.17747 -4.9926,-2.35494 -8.48264,-4.00114c0,5.26505 -0.11717,9.03467 0.13333,12.77969c0.03533,0.52808 1.8659,0.93608 3.57673,1.37274z" id="svg_9"/>
  <path fill="#1792C7" d="m86.93493,119.43694c0.32153,0.64149 0.64307,1.28299 1.09768,2.50384c0.31374,0.89475 0.58545,1.06377 0.9482,1.08641c0,0 0.02638,0.38469 -0.29803,0.79397c-0.44571,0.88506 -0.73328,1.38661 -0.66411,1.83288c1.93921,12.51195 -4.77182,22.25671 -17.21596,24.53073c-3.70683,0.67738 -7.55306,0.59184 -11.33543,0.85585c0,0 -0.44015,0.02258 -0.72642,-0.20865c-0.67818,-0.24454 -1.07009,-0.25784 -1.46199,-0.27113c-1.84106,-1.65374 -3.73493,-3.25275 -5.51431,-4.97037c-9.12532,-8.80864 -10.14319,-20.575 -2.58258,-29.41729c7.76915,-9.08616 21.44259,-10.58777 31.05362,-3.35414c1.58705,1.19448 2.98934,2.63446 4.83634,4.37002c0.86056,1.02198 1.36178,1.63492 1.86299,2.24788m-17.08148,-2.06698c-4.56666,-3.10021 -7.56945,-2.82926 -9.67124,1.51189c-2.9287,6.04908 -3.25898,12.24594 1.07664,18.76025c0.36124,0.70586 0.54918,1.63076 1.11482,2.07825c2.04832,1.62053 4.55255,4.59818 6.26927,4.22585c2.25801,-0.4897 5.0206,-3.36986 5.65758,-5.73595c1.9407,-7.20886 1.46141,-14.33578 -4.44707,-20.84029z" id="svg_10"/>
  <path fill="#1692C8" d="m94.82772,109.33857c3.507,0.60547 7.014,1.21094 10.53031,2.74015c-0.02995,9.34196 -0.24618,17.76587 0.02504,26.17407c0.06214,1.92615 1.80278,3.79817 2.77094,5.6951c7.09407,1.40293 10.20015,-0.81206 10.27697,-7.58568c0.09907,-8.73448 0.02412,-17.47093 0.02412,-27.55587c4.53204,0.93751 8.10171,1.67595 11.70551,3.33055c0.03415,13.18426 0.03415,25.45236 0.03415,37.90233c-3.48864,0.1937 -6.28262,0.34884 -9.0766,0.50396c-0.50981,-0.06392 -1.01961,-0.12785 -1.86493,-0.70268c-0.40772,-1.47636 -0.47992,-2.44185 -0.44753,-2.00874c-6.67893,0.81329 -13.20817,1.60838 -19.73742,2.40345c-6.35032,-2.43101 -6.91294,-7.61445 -6.30183,-14.21983c-0.01928,-3.26308 -0.07919,-5.64307 -0.1391,-8.02307c0.24752,-5.95969 0.49504,-11.91937 1.30649,-18.13373c0.56393,-0.25466 0.89388,-0.52001 0.89388,-0.52001z" id="svg_11"/>
  <path fill="#1792C7" d="m221.03804,122.29887c1.33672,0.12422 3.06825,-0.2362 3.9326,0.46789c2.177,1.77343 3.96297,4.0269 5.65598,6.53166c-2.82358,2.7458 -5.39746,5.04791 -7.97135,7.35c-0.33815,-0.19523 -0.67631,-0.39048 -1.4792,-0.97618c-1.14897,-1.117 -1.83319,-1.84352 -3.23579,-3.33284c0,3.9931 -0.20684,6.91429 0.13492,9.76984c0.0939,0.78465 1.82808,1.373 2.80958,2.05142c3.16609,0.68788 6.33218,1.37578 9.48454,2.93666c-1.35176,1.63483 -2.66296,2.99609 -4.03238,3.0574c-6.85325,0.30683 -13.72177,0.27295 -20.58491,0.35886c-0.91524,-1.0112 -2.61201,-2.01108 -2.62686,-3.03534c-0.18242,-12.59038 -0.11884,-25.1843 -0.11884,-38.4379c8.86605,0 17.42848,-0.03953 25.98854,0.08517c0.59783,0.00871 1.17794,1.23476 1.64191,2.62621c-1.25032,1.55354 -2.30847,2.94018 -3.51572,3.08515c-2.89647,0.34781 -5.86294,0.1125 -8.85751,0.1125c0,3.62057 0,6.66043 0,10.34914c1.24066,-1.34135 2.00758,-2.1705 2.77449,-2.99964z" id="svg_12"/>
  <path fill="#8BC344" d="m162.96901,15.10665c0,0 0.02156,0.36599 -0.28465,0.72179c0.90651,12.11556 -2.68167,15.93375 -18.95523,19.79268c0,4.77533 0,9.68488 0,15.4199c-4.06598,0 -7.66108,0 -11.25617,0c-0.86949,-1.10136 -2.48073,-2.1929 -2.49545,-3.30556c-0.17534,-13.25084 -0.11304,-26.50481 -0.11304,-40.96819c8.47441,0.4744 16.67877,0.54003 24.74649,1.62328c2.44565,0.32838 4.51348,3.47074 7.13938,5.72008c0.6629,0.59592 0.94079,0.79596 1.21867,0.99602m-17.23341,13.9735c7.49395,-0.56125 11.63357,-8.58525 5.93521,-14.64304c-2.87036,-1.14481 -5.74071,-2.28962 -9.63503,-3.84282c0,6.75863 -0.08542,11.87333 0.12841,16.97548c0.02206,0.52641 1.8281,0.97806 3.57141,1.51038z" id="svg_13"/>
  <path fill="#8BC344" d="m256.03851,23.7066c0.55375,1.02173 1.10752,2.04345 2.03095,3.44422c0.56723,0.77527 0.76477,1.17149 0.96231,1.5677c0.54989,1.02035 1.09979,2.0407 2.02612,3.43121c0.57938,0.76397 0.78232,1.15779 0.98526,1.5516c1.78336,3.34363 3.56671,6.68726 5.64618,10.36661c0.29608,0.33571 0.29981,0.60937 -0.0404,0.73928c-3.45075,1.89978 -6.56131,3.66963 -9.67185,5.4395c-2.41475,-2.71255 -4.82948,-5.42511 -7.61479,-7.9169c-0.37058,0.22076 -0.39261,0.18721 -0.05922,0.00207c0.37434,-0.88046 0.41528,-1.57576 0.36371,-2.59608c-2.62648,-4.2809 -5.16045,-8.2368 -7.77759,-12.50432c-0.69748,-1.2927 -1.31175,-2.27377 -2.13814,-3.59357c-3.03489,4.45244 -5.5544,8.33932 -8.26886,12.08494c-3.75241,5.17792 -7.65167,10.24943 -11.48805,15.36652c-0.80272,-0.67883 -1.60545,-1.35766 -2.76535,-2.51428c-0.31081,-1.51083 -0.26445,-2.54386 0.0249,-3.74631c0.41158,-0.72408 0.58016,-1.27876 1.09067,-1.83088c0.93213,-0.60987 1.52232,-1.22229 2.11252,-1.83472c4.85222,-6.89908 9.80763,-13.73 14.45402,-20.76504c0.76526,-1.15866 0.49437,-3.29062 0.12008,-4.83131c-0.3706,-1.52531 -1.4777,-2.87169 -2.53304,-4.78958c2.82896,-1.74143 5.36786,-3.55701 8.1462,-4.86329c0.85299,-0.40106 2.3614,0.59186 4.00836,1.30165c0.74974,0.76986 1.0608,1.18452 1.37187,1.59919c0.55981,0.99772 1.11964,1.99543 2.05022,3.3515c0.5689,0.7436 0.76705,1.12883 0.96522,1.51407c0.55145,1.03259 1.10291,2.06518 2.03166,3.46864c0.57569,0.76187 0.77408,1.15288 0.97246,1.54389c0.54208,1.03203 1.08417,2.06405 2.00563,3.46387c0.58257,0.7618 0.78577,1.15581 0.98895,1.54982z" id="svg_14"/>
  <path fill="#8CC148" d="m267.98914,44.67731c0,0 -0.00373,-0.27366 -0.00769,-0.41046c0.38424,-1.79995 1.09185,-3.45992 1.10842,-5.12677c0.10337,-10.39146 0.05213,-20.78445 0.05213,-31.90835c4.66894,0 9.0505,-0.05665 13.42608,0.07932c0.48847,0.01518 0.94291,1.12455 1.36393,2.59949c-0.06201,10.37264 -0.0709,19.87229 -0.09104,29.37191c-0.0039,1.84683 -0.31888,3.8975 2.64508,3.46082c2.96112,0.03835 5.93454,-0.06485 8.87665,0.19168c1.03232,0.09001 1.98758,1.06346 2.94962,2.54786c-0.15097,2.32566 -0.27353,3.73697 -0.43866,5.63837c-8.93531,0 -17.51477,0 -26.09424,0c-1.00406,-0.74028 -2.00812,-1.48057 -3.10681,-2.71426c-0.29093,-1.57214 -0.48722,-2.65087 -0.68347,-3.72961z" id="svg_15"/>
  <path fill="#8DC547" d="m10.99557,16.28024c-0.91942,-2.66696 -1.83883,-5.33391 -3.07204,-8.91112c11.10381,0 20.89799,-0.01703 30.69135,0.06466c0.37677,0.00314 0.74562,0.95639 1.0165,2.18866c-0.31292,2.3413 -0.52418,3.96086 -0.76836,5.8327c-2.54932,0.17732 -4.97391,0.34596 -7.97016,0.55436c0,10.69328 0,21.2535 0,32.35465c-4.04335,0 -7.50794,0 -10.97253,0c-3.20895,0.23744 -2.76863,-2.0463 -2.77602,-4.01941c-0.03054,-8.15161 -0.06046,-16.30322 -0.29378,-25.23689c-2.0871,-1.4639 -3.97103,-2.14576 -5.85496,-2.82761z" id="svg_16"/>
  <path fill="#8BC443" d="m169.76579,51.0464c-0.91835,-1.01446 -2.62246,-2.01846 -2.63614,-3.04497c-0.17895,-13.43834 -0.11891,-26.87987 -0.11891,-41.79679c5.25365,0.80475 10.1111,1.5488 14.98822,3.18464c0.01967,14.28861 0.01967,27.68542 0.01967,41.65712c-4.65442,0 -8.45363,0 -12.25284,0z" id="svg_17"/>
  <path fill="#8BC445" d="m219.20283,42.99536c-0.16858,0.55467 -0.33716,1.10935 -1.11135,1.82732c-6.50938,4.06706 -12.79692,6.17407 -19.93644,4.2924c-7.99317,-6.51327 -12.34751,-14.65252 -10.92089,-25.19735c0.98719,-7.2967 4.69365,-12.87111 11.80701,-15.28381c6.86884,-2.32976 13.94804,-3.91395 19.52312,3.05269c-4.65645,1.05986 -9.17514,1.15557 -13.37836,2.35595c-8.00537,2.28624 -10.10404,13.69184 -4.87824,18.91855c4.07122,8.11914 10.83902,9.71343 19.38814,8.21071c0.07456,0.83853 -0.20923,1.33103 -0.49299,1.82354z" id="svg_18"/>
  <path fill="#1993C7" d="m23.00934,149.09911c-8.44526,-6.92318 -13.11453,-15.35459 -9.92806,-26.53019c3.58507,-12.57366 21.63514,-17.86905 30.48631,-8.53823c-3.29979,0.72508 -6.50108,0.57019 -9.60449,1.04933c-10.67513,1.64817 -14.58742,11.42895 -8.07873,19.88305c5.96176,7.22252 8.10065,7.96546 19.18025,6.50222c-0.26271,0.8439 -0.48387,1.55432 -0.71364,2.7189c-6.65184,4.17818 -13.4211,7.29948 -21.34164,4.91492z" id="svg_19"/>
  <path fill="#1993C8" d="m181.62338,143.00291c0,-11.02862 0,-22.05724 0,-34.62581c5.00893,1.16233 8.98825,2.08574 12.92997,3.7476c-0.03762,12.95598 -0.03762,25.17353 -0.03762,37.67826c-3.90114,0.17705 -7.00658,0.31798 -10.112,0.45891c-0.86705,-0.80824 -1.73408,-1.61648 -2.63301,-3.06042c-0.12916,-0.93207 -0.2852,-1.19339 -0.51585,-1.635c0.13656,-0.61824 0.28903,-1.02115 0.46855,-1.71182c-0.01532,-0.47575 -0.05768,-0.66374 -0.10004,-0.85172z" id="svg_20"/>
  <path fill="#101416" d="m277.06384,151.46115c12.60968,-1.54187 17.47693,-7.94496 16.15195,-20.92596c-0.41025,-4.01941 -0.11676,-8.32094 0.90045,-12.22048c1.17114,-4.48969 4.81479,-6.96744 9.98163,-7.51759c1.45523,0.48443 2.4819,0.98969 2.71298,1.10342c-3.12784,2.66425 -7.6911,4.8786 -9.39374,8.45487c-1.8348,3.85392 -0.95806,8.98593 -1.32547,13.55543c-0.27691,3.4448 -0.0567,7.07407 -1.09674,10.28469c-2.65774,8.20469 -9.49383,10.91658 -17.93106,7.26562z" id="svg_21"/>
  <path fill="#1F221C" d="m19.92865,48.73673c3.45627,-0.37258 6.92086,-0.37258 10.96421,-0.37258c0,-11.10115 0,-21.66137 0,-32.35465c2.99625,-0.2084 5.42084,-0.37704 7.97016,-0.55436c0.24418,-1.87184 0.45544,-3.4914 0.84324,-5.40746c0.62092,-0.29364 1.0653,-0.29078 1.84186,-0.28989c0.36442,2.67932 0.39668,5.3606 0.38774,8.44943c-2.65083,0.40753 -5.26047,0.40753 -8.32744,0.40753c0,11.07582 0,21.6331 0,32.62401c-4.24487,0 -8.04251,0.0996 -11.82492,-0.09566c-0.64878,-0.0335 -1.23267,-1.32398 -1.85485,-2.40637z" id="svg_22"/>
  <path fill="#151813" d="m94.04268,50.38931c3.30276,-0.16844 6.81436,0.47173 10.21397,0.09673c15.76775,-1.73929 23.92871,-14.76626 19.47769,-30.45104c5.44822,6.03496 5.00173,12.9707 2.1998,19.80039c-3.19696,7.79258 -9.29566,12.69099 -17.74651,13.14271c-4.60935,0.24638 -9.32175,-1.43554 -14.14495,-2.58879z" id="svg_23"/>
  <path fill="#0C0D0B" d="m132.48372,51.44957c3.58433,-0.40855 7.17943,-0.40855 11.24541,-0.40855c0,-5.73502 0,-10.64457 0,-15.4199c16.27356,-3.85893 19.86174,-7.67712 18.98059,-19.61113c5.03064,6.04062 3.0081,14.85501 -4.41695,18.58875c-3.6326,1.82668 -7.78868,2.61234 -12.05965,3.98201c0,4.4375 0,9.21453 0,15.16339c-4.82974,-0.66302 -9.28419,-1.27453 -13.7494,-2.29457z" id="svg_24"/>
  <path fill="#1B1B1C" d="m169.77365,51.4658c3.79135,-0.4194 7.59056,-0.4194 12.24498,-0.4194c0,-13.9717 0,-27.36851 0.04881,-41.20453c0.97493,0.35926 2.69864,1.1481 2.70841,1.95762c0.16577,13.73699 0.11876,27.47653 0.11876,41.75821c-4.83045,0 -9.26808,0.05152 -13.70075,-0.0734c-0.48544,-0.01368 -0.94227,-1.0416 -1.42021,-2.0185z" id="svg_25"/>
  <path fill="#0D1113" d="m59.69972,151.37315c3.54993,-0.59654 7.39616,-0.511 11.10299,-1.18838c12.44414,-2.27402 19.15517,-12.01878 17.21596,-24.53073c-0.06917,-0.44627 0.2184,-0.94782 0.66561,-1.64009c0.98271,0.96239 1.63951,2.14129 2.37927,4.09588c0.12619,3.14842 0.16943,5.52112 0.21266,7.89383c-4.66942,14.76941 -15.9374,20.41417 -31.57649,15.36949z" id="svg_26"/>
  <path fill="#04151D" d="m184.4156,150.65299c3.09355,-0.53205 6.19899,-0.67298 10.10013,-0.85003c0,-12.50473 0,-24.72228 0.14263,-37.31105c0.944,0.52682 2.43219,1.41652 2.4432,2.32417c0.15306,12.59053 0.10355,25.18352 0.10355,38.21029c-3.81397,0 -7.27084,0.11123 -10.70944,-0.08997c-0.72382,-0.04234 -1.38056,-1.23155 -2.08007,-2.28341z" id="svg_27"/>
  <path fill="#030F14" d="m121.128,150.92668c2.78414,-0.53862 5.57812,-0.69376 9.06676,-0.88746c0,-12.44997 0,-24.71807 0.04251,-37.44371c0.95499,0.29148 2.65304,1.03036 2.66285,1.79103c0.16406,12.72023 0.11708,25.44317 0.11708,38.62005c-3.57056,0 -6.83649,0.08748 -10.08974,-0.07664c-0.6222,-0.03139 -1.19437,-1.05431 -1.79946,-2.00327z" id="svg_28"/>
  <path fill="#8AC244" d="m240.07497,47.11408c-2.10521,-1.74579 -4.21044,-3.49159 -6.75573,-5.68665c1.90545,-3.5003 4.25097,-6.55133 6.89069,-9.42249c2.78575,2.66239 5.27731,5.14492 7.4502,7.77167c-2.74083,2.54197 -5.163,4.93972 -7.58516,7.33747z" id="svg_29"/>
  <path fill="#12160D" d="m239.91573,31.82507c-2.34552,3.05103 -4.69104,6.10206 -6.92626,9.51017c-2.64862,4.27355 -5.40755,8.19003 -8.32562,12.33244c-1.161,-0.6699 -2.24831,-1.29728 -3.50266,-2.25148c3.66933,-5.44391 7.56859,-10.51542 11.321,-15.69334c2.71446,-3.74562 5.23397,-7.6325 8.26886,-12.08494c0.82639,1.3198 1.44066,2.30087 1.85479,3.79183c-1.03014,1.80504 -1.86013,3.10018 -2.69011,4.39532z" id="svg_30"/>
  <path fill="#11160C" d="m200.09305,32.52434c-5.21157,-4.78994 -3.1129,-16.19554 4.89247,-18.48178c4.20322,-1.20038 8.72191,-1.29609 13.51097,-2.04924c1.19876,0.71213 1.9847,1.58283 3.08913,2.8064c-18.36597,1.11462 -21.41875,3.65766 -21.49257,17.72462z" id="svg_31"/>
  <path fill="#0F1316" d="m25.97541,134.51761c-6.59973,-8.00864 -2.68744,-17.78942 7.98769,-19.43759c3.10341,-0.47914 6.3047,-0.32425 9.76622,-0.7382c1.35811,0.08381 2.41113,0.44581 3.46416,0.80781c-0.47804,0.47263 -0.95607,0.94527 -1.43411,1.41791c-18.20104,2.47085 -21.23344,5.16629 -19.78396,17.95007z" id="svg_32"/>
  <path fill="#161714" d="m271.78577,51.55215c8.57312,-0.43097 17.15258,-0.43097 26.08789,-0.43097c0.16513,-1.9014 0.28769,-3.31271 0.40506,-5.21766c6.21646,0.55587 1.41558,4.93302 3.23916,7.9754c-9.72165,0 -18.63608,0.04444 -27.54809,-0.08211c-0.73432,-0.01042 -1.45218,-1.18177 -2.18402,-2.24466z" id="svg_33"/>
  <path fill="#041921" d="m108.12161,143.48465c-0.93576,-1.43369 -2.6764,-3.30571 -2.73854,-5.23186c-0.27122,-8.4082 -0.05499,-16.83211 0.04636,-25.70805c3.05909,-0.85328 2.60414,1.24894 2.60674,3.04117c0.01328,9.14517 0.03455,18.29033 0.08544,27.89874z" id="svg_34"/>
  <path fill="#04171F" d="m205.76877,150.92004c6.8464,-0.49237 13.71492,-0.45849 20.56817,-0.76532c1.36942,-0.06131 2.68062,-1.42257 4.08966,-2.62797c4.73572,-0.50331 1.95937,3.0208 3.21512,5.48648c-9.23077,0 -17.89679,0.02454 -26.56146,-0.07173c-0.43751,-0.00487 -0.86343,-1.05277 -1.31149,-2.02146z" id="svg_35"/>
  <path fill="#171E21" d="m141.94739,150.56192c3.43087,-0.42528 6.86757,-0.42528 10.95032,-0.42528c0,-5.70552 0,-10.9886 0,-17.30552c1.54374,1.4143 2.21006,2.02474 3.03678,2.92868c0.1604,5.74014 0.1604,11.18681 0.1604,17.12645c-4.62234,0 -8.57673,0.07512 -12.52163,-0.08448c-0.56357,-0.02281 -1.08118,-1.18155 -1.62587,-2.23985z" id="svg_36"/>
  <path fill="#0E191E" d="m239.11127,150.53336c3.43588,-0.41227 6.88093,-0.41227 11.14708,-0.41227c0,-4.84185 -0.02568,-9.20974 0.01143,-13.5771c0.01716,-2.01862 0.30142,-3.73915 2.74465,-0.92402c0.16976,5.75326 0.16976,11.17167 0.16976,17.23203c-4.36826,0 -8.40968,0.07387 -12.44199,-0.08473c-0.56358,-0.02215 -1.08227,-1.18618 -1.63093,-2.23391z" id="svg_37"/>
  <path fill="#15181A" d="m23.16552,149.40514c7.76436,2.07853 14.53362,-1.04277 21.41486,-4.98267c1.18778,-0.3334 2.13755,-0.45091 3.2433,-0.58772c-3.3923,8.3388 -15.66738,11.14511 -24.65816,5.57039z" id="svg_38"/>
  <path fill="#101315" d="m220.9646,121.82486c-0.69347,1.30315 -1.46039,2.1323 -2.70105,3.47365c0,-3.68871 0,-6.72857 0,-10.34914c2.99457,0 5.96104,0.23531 8.85751,-0.1125c1.20725,-0.14497 2.2654,-1.53161 3.59714,-2.69737c1.21799,1.33287 2.23015,3.00946 3.87555,5.73496c-4.77037,0 -7.74844,0.22435 -10.67656,-0.06201c-3.02991,-0.29631 -3.27322,1.29037 -2.95259,4.01241z" id="svg_39"/>
  <path fill="#010201" d="m286.48782,42.33154c-2.96573,0.84841 -2.65075,-1.20226 -2.64685,-3.04909c0.02014,-9.49962 0.02903,-18.99927 0.12439,-28.97252c0.89542,0.76003 2.38681,1.97941 2.41312,3.22958c0.19876,9.4567 0.11008,18.91944 0.10934,28.79203z" id="svg_40"/>
  <path fill="#151A11" d="m72.61398,32.55096c-1.17457,-0.40342 -2.07175,-1.04315 -3.52294,-2.07791c6.6143,-3.65245 8.66212,-8.90427 6.84373,-16.03907c1.09685,2.69702 2.19222,5.78261 3.22592,9.45745c-0.03301,0.76288 -0.00434,0.9365 0.02433,1.11012c-2.09788,2.4377 -4.19576,4.8754 -6.57104,7.54941z" id="svg_41"/>
  <path fill="#0D1519" d="m99.15811,150.55655c6.43942,-1.11641 12.96866,-1.9115 19.64759,-2.72479c-0.03239,-0.43311 0.03981,0.53238 0.08663,1.87307c-6.46044,3.21351 -12.89331,6.10582 -19.73422,0.85172z" id="svg_42"/>
  <path fill="#181A16" d="m198.08311,49.44036c7.01105,1.55639 13.29859,-0.55062 19.56496,-4.44826c0.31627,1.03914 0.26991,2.07217 0.26788,3.4935c-6.36962,4.42735 -12.90351,5.80979 -19.83284,0.95476z" id="svg_43"/>
  <path fill="#0F1213" d="m267.09857,132.77841c-1.11758,-0.44896 -2.01147,-1.15028 -3.41501,-2.25143c5.86106,-2.99809 8.12912,-7.64326 7.275,-14.21909c4.9906,5.37348 3.58359,11.60349 -3.85999,16.47052z" id="svg_44"/>
  <path fill="#111415" d="m170.27011,132.35084c-1.31251,-0.29986 -2.29884,-0.77253 -4.26234,-1.71351c6.79196,-3.21719 8.63742,-8.22578 7.81092,-14.74757c4.56666,6.17637 3.35766,11.8658 -3.54858,16.46108z" id="svg_45"/>
  <path fill="#020301" d="m44.8551,51.55037c3.54695,-0.43713 7.11165,-0.43713 11.0723,-0.43713c0,-6.08473 0,-11.59017 0,-17.09562c0.29101,-0.09917 0.58201,-0.19834 0.87302,-0.29751c0.46784,0.83051 0.93569,1.66102 1.57357,2.71517c0.17005,5.52531 0.17005,10.82699 0.17005,17.01081c-4.81795,-0.51403 -9.24458,-0.98631 -13.68894,-1.89572z" id="svg_46"/>
  <path fill="#1A1D16" d="m73.73927,51.43469c2.61341,-2.93273 5.35387,-5.56597 8.36013,-8.31883c1.23682,0.44117 2.20787,1.00198 3.7771,1.90824c-3.27474,2.99424 -5.71592,4.93631 -7.79266,7.21108c-1.87771,2.05675 -2.981,1.05073 -4.34457,-0.80049z" id="svg_47"/>
  <path fill="#0C1012" d="m222.79938,136.92352c2.42978,-2.57719 5.00366,-4.8793 7.91182,-7.31987c2.28946,1.16083 3.17321,2.49173 0.76553,4.29428c-1.55571,1.16469 -3.0298,2.46897 -4.38727,3.8602c-1.72906,1.77211 -3.00569,1.41645 -4.29008,-0.83461z" id="svg_48"/>
  <path fill="#141611" d="m267.64893,44.80722c0.53646,0.94883 0.73275,2.02756 0.76593,3.3555c-2.11866,1.44976 -4.18848,2.50123 -6.00016,3.88963c-2.13931,1.63951 -3.17208,0.607 -4.26553,-1.52789c2.93845,-2.04761 6.04901,-3.81746 9.49976,-5.71724z" id="svg_49"/>
  <path fill="#07090A" d="m181.69636,144.14239c-0.15246,0.40291 -0.30493,0.80582 -0.67428,1.60787c-0.45781,0.69151 -0.69873,0.98389 -0.93965,1.27626c-2.22337,1.90279 -4.44675,3.80559 -6.80184,5.82109c-0.72581,-0.6441 -1.45758,-1.29347 -2.35597,-2.28972c2.4984,-2.7942 5.16344,-5.24153 8.03067,-7.94394c0.57018,-0.01802 0.93813,0.21903 1.61896,0.71277c0.52129,0.53185 0.79105,0.71817 1.12211,0.81567z" id="svg_50"/>
  <path fill="#090A08" d="m240.23859,47.44861c2.25854,-2.73228 4.68071,-5.13003 7.69192,-7.51782c1.09035,0.33999 1.59161,0.67003 2.14993,1.399c0.00112,0.6617 -0.05482,0.92447 -0.11076,1.18724c0,0 0.02203,0.03355 0.01637,0.01165c-2.26536,2.37878 -4.52504,4.77946 -7.08268,7.49668c-0.91106,-0.81673 -1.7061,-1.52948 -2.66478,-2.57675z" id="svg_51"/>
  <path fill="#121719" d="m220.88379,143.70193c-0.98051,-0.21969 -2.71469,-0.80804 -2.80859,-1.59269c-0.34176,-2.85555 -0.13492,-5.77674 -0.13492,-9.76984c1.4026,1.48932 2.08682,2.21584 2.95318,3.24934c0.11786,2.75615 0.05359,5.20533 -0.00967,8.11319z" id="svg_52"/>
  <path fill="#1690C5" d="m274.74695,148.93457c-1.96057,0.91856 -3.99481,1.48007 -6.38822,2.09805c-0.35916,0.05648 -0.43441,-0.38185 -0.46225,-0.60267c1.71515,-2.95516 3.60874,-5.0614 6.85047,-1.49538z" id="svg_55"/>
  <path fill="#FAFBFB" d="m11.01324,16.65004c1.86626,0.31205 3.75019,0.99391 5.66999,2.01615c-1.8602,-0.32186 -3.75626,-0.98411 -5.66999,-2.01615z" id="svg_56"/>
  <path fill="#FAFBFB" d="m86.92122,119.19095c-0.4875,-0.36697 -0.98872,-0.97991 -1.52708,-1.853c0.47968,0.36225 0.99652,0.98463 1.52708,1.853z" id="svg_59"/>
  <path fill="#FAFBFB" d="m122.95499,17.00816c-0.43913,-0.31138 -0.93331,-0.82608 -1.41934,-1.58581c0.46019,0.29748 0.91223,0.83998 1.41934,1.58581z" id="svg_60"/>
  <path fill="#FAFBFB" d="m57.40442,150.68414c0.26635,-0.11001 0.65826,-0.09671 1.12197,0.0972c-0.28427,0.12911 -0.64034,0.07761 -1.12197,-0.0972z" id="svg_61"/>
  <path fill="#FAFBFB" d="m253.01636,18.46416c-0.17081,-0.16226 -0.3692,-0.55327 -0.61635,-1.17285c0.16376,0.16231 0.37627,0.55321 0.61635,1.17285z" id="svg_63"/>
  <path fill="#FAFBFB" d="m75.95688,13.31289c-0.28821,-0.079 -0.60426,-0.41175 -0.97918,-1.01738c0.27787,0.07263 0.61461,0.41813 0.97918,1.01738z" id="svg_64"/>
  <path fill="#FAFBFB" d="m250.0134,13.45395c-0.17176,-0.15881 -0.36991,-0.54404 -0.61452,-1.15577c0.16505,0.15879 0.37657,0.54407 0.61452,1.15577z" id="svg_65"/>
  <path fill="#FAFBFB" d="m246.98729,8.53169c-0.27399,-0.13155 -0.58505,-0.54621 -1.01503,-1.20556c0.24672,0.14436 0.61234,0.5334 1.01503,1.20556z" id="svg_67"/>
  <path fill="#0F1213" d="m271.22717,115.68517c-0.39398,-0.10058 -0.70346,-0.48491 -1.08755,-1.15043c0.34094,0.10144 0.75647,0.48407 1.08755,1.15043z" id="svg_68"/>
  <path fill="#FAFBFB" d="m256.01239,23.47444c-0.17706,-0.16185 -0.38026,-0.55586 -0.63326,-1.18103c0.16918,0.16219 0.38816,0.55553 0.63326,1.18103z" id="svg_69"/>
  <path fill="#FAFBFB" d="m259.00891,28.48663c-0.17468,-0.16432 -0.37222,-0.56054 -0.61594,-1.18712c0.1669,0.16483 0.37998,0.56003 0.61594,1.18712z" id="svg_71"/>
  <path fill="#FAFBFB" d="m262.01553,33.46984c-0.17532,-0.16232 -0.37826,-0.55614 -0.63137,-1.18112c0.16784,0.16243 0.3858,0.55603 0.63137,1.18112z" id="svg_72"/>
  <path fill="#FAFBFB" d="m162.87465,14.86685c-0.18352,0.03974 -0.46141,-0.1603 -0.81825,-0.60912c0.18866,-0.04274 0.45628,0.16329 0.81825,0.60912z" id="svg_73"/>
  <path fill="#FAFBFB" d="m123.9445,18.84858c-0.2189,0.08062 -0.41767,-0.08936 -0.51674,-0.53015c0.24114,-0.05937 0.38685,0.12408 0.51674,0.53015z" id="svg_75"/>
  <path fill="#FAFBFB" d="m88.90605,122.82021c-0.28799,0.18434 -0.5597,0.01532 -0.72665,-0.54838c0.29014,-0.12067 0.50287,0.07589 0.72665,0.54838z" id="svg_76"/>
  <path fill="#FAFBFB" d="m94.72758,109.29296c0.10014,0.04561 -0.22981,0.31096 -0.4382,0.274c-0.08126,-0.24967 0.10089,-0.34388 0.4382,-0.274z" id="svg_77"/>
  <path fill="#F9F9F9" d="m162.63963,89.33712c-1.916,-1.94285 -3.61232,-3.57711 -5.30864,-5.21137c-0.41142,0.33518 -0.82286,0.67037 -1.23428,1.00555c0,4.11149 0,8.22297 0,12.68546c-3.8179,0 -7.36858,0 -11.27112,0c0,-10.79365 0,-21.65128 0,-32.71486c7.80246,0 15.43927,-0.21411 23.05766,0.06817c6.02556,0.22325 9.44715,3.16718 10.07223,7.77617c0.63415,4.67595 -1.65717,7.85165 -7.03359,10.14221c3.19353,4.64418 6.44156,9.36764 9.90405,14.40295c-12.23089,2.02527 -12.23089,2.02527 -18.18631,-8.15428m-4.14596,-17.52809c-5.21204,0.62141 -1.25437,4.23492 -2.73227,6.57847c1.61424,0.07354 2.59184,0.27446 3.51581,0.13072c2.72288,-0.42356 6.95501,0.72999 7.00616,-3.4354c0.05463,-4.44763 -4.19816,-2.89694 -7.7897,-3.27379z" id="svg_78"/>
  <path fill="#F7F7F7" d="m53.77421,84.00786c-4.76294,0.00002 -9.0535,0.00002 -13.52613,0.00002c0,2.29204 0,4.19366 0,6.50317c6.49506,0 12.75888,0 19.30359,0c0,2.62942 0,4.85257 0,7.37289c-10.1484,0 -20.23162,0 -30.69805,0c0,-10.82281 0,-21.6764 0,-32.69489c10.03798,0 19.95795,0 30.09841,0c0,2.25675 0,4.31759 0,6.75385c-6.24365,0 -12.34009,0 -18.68424,0c0,1.77077 0,3.1748 0,5.15746c5.65082,0 11.37475,0 17.67509,0c-0.97199,2.99622 2.45404,7.28938 -4.16867,6.9075z" id="svg_79"/>
  <path fill="#FBFBFB" d="m215.49206,67.19844c0.00684,1.73137 0.00684,3.02718 0.00684,4.69197c-6.49748,0 -12.59163,0 -19.01347,0c-0.14226,1.73824 -0.25652,3.13429 -0.41898,5.11931c5.9877,0 11.71706,0 17.68073,0c0,2.49294 0,4.42996 0,6.86462c-5.57816,0 -11.31919,0 -17.31392,0c0,2.23782 0,3.98732 0,6.37092c6.3119,0 12.69029,0 19.31004,0c0,2.87001 0,5.11412 0,7.63976c-10.08706,0 -20.1591,0 -30.56984,0c0,-10.67337 0,-21.41194 0,-32.73976c9.65521,0 19.55165,-0.01385 29.4473,0.0679c0.29242,0.00242 0.57651,1.01053 0.8713,1.98528z" id="svg_80"/>
  <path fill="#F8F8F8" d="m275.15991,92.15323c2.01627,-1.0974 3.61759,-2.19945 5.2189,-3.3015c-1.56973,-1.2509 -2.96246,-2.94611 -4.74728,-3.6571c-3.3703,-1.34259 -7.06479,-1.86888 -10.44089,-3.20015c-3.46682,-1.36706 -6.43667,-4.22394 -5.43673,-7.96182c0.79214,-2.96122 3.21762,-6.48176 5.87362,-7.74616c6.01346,-2.86272 12.7844,-2.77525 18.8917,-0.02619c2.61535,1.17725 4.35589,4.29804 6.03411,7.14232c-4.75933,0.99312 -8.91302,3.45933 -12.82092,-1.39603c-1.81943,-2.26053 -5.41351,-2.12918 -8.06311,1.83048c2.03989,0.81808 3.71069,1.62222 5.4628,2.1629c3.64264,1.12406 7.53439,1.66292 10.953,3.24398c6.91565,3.1984 7.68778,10.95105 1.89728,15.88467c-5.53265,4.71392 -20.12198,5.2415 -25.46976,0.47743c-2.19848,-1.95851 -3.42929,-5.00327 -5.62796,-8.35949c4.69162,-0.25959 8.08823,-0.44752 11.48484,-0.63546c-0.16895,0.31601 -0.33789,0.63201 -0.50684,0.948c2.2941,1.52983 4.58823,3.05965 7.29724,4.59412z" id="svg_81"/>
  <path fill="#F8F8F8" d="m221.34715,91.43419c-0.45274,-1.59963 -0.72889,-2.86004 -1.04246,-4.29132c2.39813,-0.1134 4.55864,-0.11221 6.69388,-0.3439c2.42309,-0.26291 4.23748,-0.36614 5.4412,2.65954c0.55187,1.38712 3.48267,2.45829 5.35854,2.4964c1.61333,0.03279 3.2606,-1.6059 4.89287,-2.50552c-1.21906,-1.33847 -2.19444,-3.28648 -3.70687,-3.8911c-3.35992,-1.34319 -7.09027,-1.74541 -10.48165,-3.02813c-3.91584,-1.4811 -7.01294,-4.01537 -6.64332,-8.83203c0.35637,-4.64384 3.4094,-7.52275 7.54905,-8.0659c5.16555,-0.67776 10.5534,-0.66751 15.72201,-0.00001c4.19087,0.54122 6.79952,3.67467 7.41454,8.59429c-4.55934,0.02825 -9.14652,3.04555 -12.57733,-2.36592c-0.5042,-0.79526 -2.48208,-1.09621 -3.66051,-0.9042c-1.25896,0.20515 -2.37857,1.26547 -3.55901,1.95249c0.95285,0.92803 1.75376,2.33286 2.88721,2.69405c3.30794,1.05407 6.80914,1.49877 10.12267,2.53888c4.53514,1.42358 8.15374,3.93076 8.23095,9.34304c0.06358,4.45716 -3.20686,8.42868 -8.20158,10.16038c-9.18179,3.1834 -19.82874,0.60682 -24.44019,-6.21104z" id="svg_82"/>
  <path fill="#FAFAFA" d="m79.07703,93.08357c-3.44712,7.84702 -9.94399,4.28588 -16.36619,5.28332c3.8462,-5.21657 6.85529,-9.73679 10.33413,-13.86074c2.29381,-2.71918 2.17837,-4.61984 -0.05714,-7.26892c-2.98778,-3.54053 -5.50581,-7.47749 -8.36883,-11.4426c9.13836,-3.16984 14.7154,0.71926 18.41785,10.39831c3.86326,-9.35667 9.25009,-13.72614 18.62751,-10.50837c-2.67373,3.70285 -5.24791,7.68665 -8.25989,11.30612c-2.3938,2.8766 -2.68935,5.05084 -0.06519,8.05249c3.35498,3.83761 6.14788,8.1666 9.55937,12.79437c-4.61756,0 -9.24649,1.23788 -12.48661,-0.35292c-3.15358,-1.54832 -4.88499,-5.99327 -7.57876,-9.6215c-1.32255,1.82677 -2.43429,3.3624 -3.75625,5.22044z" id="svg_83"/>
  <path fill="#FDFDFD" d="m106.84197,94.9034c-0.00033,-10.11548 -0.00033,-19.73829 -0.00033,-29.75462c7.54278,0 14.82907,-0.34129 22.06649,0.10679c5.90884,0.36582 8.9904,3.91688 9.23742,9.20007c0.28392,6.07206 -2.32826,9.69271 -8.5421,10.92534c-3.5363,0.7015 -7.22667,0.62627 -11.26278,0.93229c0,3.70036 0,7.45249 0,11.8409c-3.3175,0 -6.26955,0.20834 -9.15861,-0.12661c-0.86993,-0.10085 -1.56474,-1.71212 -2.34009,-3.12416m14.45746,-15.70826c2.86559,-0.07421 6.06533,-0.70582 5.29599,-4.21582c-1.00409,-4.58102 -4.97267,-2.9969 -9.84582,-2.95528c1.54914,3.01761 2.61444,5.09275 4.54983,7.1711z" id="svg_84"/>
  <path fill="#060C0F" d="m256.92322,117.49709c-1.34273,0.35179 -2.77285,0.35179 -4.76242,0.35179c0,3.23639 0,6.23945 0.0281,9.70231c-0.77369,-0.23775 -2.21356,-0.88913 -2.26799,-1.64083c-0.24887,-3.43741 -0.10933,-6.90295 -0.10933,-11.50139c2.78017,1.08303 4.90221,1.90968 7.11164,3.08812z" id="svg_86"/>
  <path fill="#1690C5" d="m275.53088,142.13931c0.93183,0.57289 1.61011,1.32276 2.44446,2.37351c-0.9953,0.38531 -2.14667,0.46974 -3.63669,0.52067c-0.33865,-0.03349 -0.34597,-0.03897 -0.34597,-0.03897c0.42825,-0.89274 0.85647,-1.78549 1.5382,-2.85521z" id="svg_87"/>
  <path fill="#1690C5" d="m274.00272,145.00349c-0.09195,0.03653 -0.18659,0.06957 -0.14566,0.0468c0.13562,-0.05577 0.14294,-0.05029 0.14566,-0.0468z" id="svg_88"/>
  <path fill="#12150E" d="m105.9339,16.50478c-5.03225,-1.54926 -7.00116,2.30416 -7.5442,5.58656c-0.81252,4.91131 -0.19387,10.05938 -0.32023,15.52541c-4.85357,-4.915 -4.34898,-16.51693 -1.2217,-21.09601c2.68595,-3.93288 5.43524,-4.0863 9.08613,-0.01596z" id="svg_93"/>
  <path fill="#071014" d="m69.97087,117.71313c-5.47277,0.41232 -8.3327,3.23336 -8.86921,9.5895c-0.24647,2.92003 -0.03195,5.87893 -0.12933,9.27731c-4.0491,-5.45215 -3.71882,-11.64901 -0.79012,-17.69809c2.10179,-4.34115 5.10458,-4.6121 9.78866,-1.16872z" id="svg_97"/>
  <path fill="#1F2519" d="m151.76904,14.79417c-2.00679,0.01925 -4.11183,-0.31855 -6.85965,-0.7595c0,4.90891 0,9.48627 0.03058,14.53156c-0.94768,-0.0184 -2.75372,-0.47005 -2.77578,-0.99646c-0.21383,-5.10215 -0.12841,-10.21685 -0.12841,-16.97548c3.89432,1.5532 6.76467,2.69801 9.73326,4.19988z" id="svg_99"/>
  <path fill="#312E2F" d="m158.94367,71.80835c3.14154,0.37753 7.39433,-1.17316 7.3397,3.27447c-0.05115,4.16539 -4.28328,3.01184 -7.00616,3.4354c-0.92397,0.14374 -1.90157,-0.05718 -3.51581,-0.13072c1.4779,-2.34355 -2.47977,-5.95706 3.18227,-6.57915z" id="svg_102"/>
  <path fill="#302D2E" d="m120.86439,79.19353c-1.50035,-2.07674 -2.56565,-4.15188 -4.11479,-7.16949c4.87315,-0.04162 8.84173,-1.62574 9.84582,2.95528c0.76934,3.51 -2.4304,4.14161 -5.73103,4.21421z" id="svg_103"/>
 </g>

</svg>