<svg width="506.6" height="292.1" xmlns="http://www.w3.org/2000/svg" xml:space="preserve" version="1.1">

 <g>
  <title>Layer 1</title>
  <g id="svg_1">
   <path id="svg_2" fill="#D4E4B5" d="m315.7,161.7c-3.9,2.7 -9.1,3.5 -13.7,2.1c-0.5,-0.2 -1.1,-0.4 -1.3,-0.9c-0.4,-0.7 0.2,-1.5 0.3,-2.3c0.3,-2.3 -3,-3.3 -4,-5.3c-0.4,-0.8 -0.4,-1.8 -0.5,-2.7c-0.6,-8.1 -4.8,-15.3 -8.4,-22.6c-0.3,-0.5 -0.5,-1.1 -0.4,-1.7c0.1,-0.6 0.8,-1.1 1.3,-0.8c-0.4,1.4 0.5,3 1.8,3.4c0.6,-2.3 0.9,-5.4 -1.2,-6.6c-0.7,-0.4 -1.6,-0.5 -2.4,-0.5c-3.2,-0.2 -6.5,0 -9.7,0.5c-0.5,0.1 -1.1,0.2 -1.6,-0.1c-0.4,-0.2 -0.6,-0.7 -0.9,-1.1c-0.8,-1.1 -2.9,-1.6 -4,-0.7c-1.2,1 -0.3,3.2 -2.7,3.5c-1.3,0.2 -2.6,-0.5 -3.8,-1.2c-1.3,-0.7 -2.5,-1.5 -3.5,-2.6c-0.3,-0.4 -0.6,-0.8 -1,-1.1c-0.8,-0.5 -1.9,-0.2 -2.9,-0.3c-1,0 -2.2,-0.7 -1.9,-1.7c0.1,-0.3 0.3,-0.5 0.5,-0.8c1.2,-1.9 -0.4,-4.6 -2.6,-5.3c-2.2,-0.7 -4.5,0 -6.7,0.7c-3.3,1 -6.5,2.1 -9.8,3.1c-1.2,0.4 -2.5,0.8 -3.8,0.5c-1.1,-0.2 -2.2,-0.8 -3.2,-0.4c-1.3,0.7 -1.1,2.7 -1.9,3.9c-0.8,1.2 -2.4,1.6 -3.2,2.8c-0.9,1.4 -0.4,3.2 -0.5,4.9c-0.2,3.2 -2.8,5.6 -5.1,7.8s-4.7,5.1 -4.1,8.3c0.2,1 0.6,1.9 0.7,2.9c0.1,0.8 -0.2,1.6 -0.4,2.4c-0.7,2.5 -1.4,5 -2,7.4c2.3,4 4.8,7.9 7.5,11.6c1.3,1.8 2.8,3.7 4.7,4.9c1.9,1.3 4.3,2 6.5,1.4c1,-0.3 1.9,-0.8 2.9,-0.9c1.4,-0.1 2.8,0.5 4.2,0.5c1.7,-0.1 3.1,-1.1 4.4,-2.1c1.3,-1 2.8,-2 4.4,-2.1c1.7,0 3.4,1.4 3.1,3c-0.1,0.4 -0.2,0.7 -0.2,1.1c0.1,0.8 1.1,1 1.9,0.9c0.8,-0.1 1.6,-0.4 2.3,0c0.9,0.5 1.1,1.8 0.7,2.8c-0.4,1.4 -1.3,2.5 -2,3.8c-0.6,1.3 -0.9,2.9 0,4.1c0.4,0.6 1.1,1 1.7,1.5c0.9,0.8 1.5,2 1.9,3.1c1.9,4.9 2.4,10.4 1.3,15.6c-0.5,2.3 -1.9,4.1 -2.4,6.3c-0.5,2.4 1.4,5 2.5,7c1.7,3 2.7,6.3 2.9,9.7c0.1,1.4 0.1,2.8 0.7,4c0.5,0.9 1.2,1.6 1.9,2.4c2.5,3 2.8,7.2 3,11.1c0.5,0.7 1.6,0.7 2.4,0.3s1.4,-1 2.2,-1.4c1.9,-1 4.3,-0.5 6.4,-0.7c3.7,-0.4 7,-3.5 7.6,-7.2c0.2,-1 0.2,-2.1 0.6,-3c0.7,-1.4 2.3,-2.4 2.5,-3.9c0.1,-0.6 -0.1,-1.3 0.1,-1.9c0.4,-1.9 3.4,-2.5 3.6,-4.5c0.1,-0.9 -0.4,-1.8 -0.8,-2.7c-1.1,-2.6 -0.2,-5.8 2.1,-7.5c0.8,-0.6 1.8,-1 2.7,-1.6c4.1,-2.9 4,-9.1 2.3,-13.8c-0.7,-1.8 -1.6,-3.7 -1.4,-5.7c0.1,-1.3 0.6,-2.5 1.2,-3.7c1.5,-2.9 3.6,-5.5 6.1,-7.5c1.6,-1.3 3.5,-2.5 4.5,-4.5c0.6,-1.2 0.7,-2.5 1.2,-3.7c0.8,-2.2 2.5,-4 3.9,-5.9c1.4,-1.6 2.4,-4.1 1.5,-6.3zm-24.1,47.9c-0.1,0.8 -1,1.6 -1.7,1.1c0,-2.2 -0.5,-4.3 -1,-6.4c-0.2,-1 -0.4,-2 -0.7,-3c-0.1,-0.5 -0.2,-1 -0.7,-1.2c-0.3,-0.2 -0.7,-0.1 -1,-0.3c-0.4,-0.3 -0.4,-1 -0.7,-1.3c-0.5,-0.5 -1.3,-0.3 -1.9,-0.7s-0.7,-1.1 -0.8,-1.8l-0.9,-7.3c0,-0.3 -0.1,-0.6 0.1,-0.8c0.2,-0.3 0.5,-0.4 0.8,-0.5c1.3,-0.5 2.4,-1.5 3,-2.7c0.3,-0.5 0.4,-1.1 0.8,-1.6c1.2,-1.7 2.9,-1.2 3.1,0.5c0.2,2.3 -0.7,2 -2,2.8c-1,0.6 -2.7,1.7 -3.4,2.7c-1,1.6 -0.1,2 0.6,3.5c0.7,1.4 0,3.3 1.1,4.5c0.7,0.8 1.8,0.9 2.6,1.4c1.3,0.8 1.8,2.5 1.9,4.1s-0.1,3.2 0.3,4.7c0.3,0.7 0.6,1.5 0.5,2.3z" class="st0"/>
   <path id="svg_3" fill="#D4E4B5" d="m304.5,213c-0.8,1.5 0.9,3.3 0.7,5.1c-0.1,1.8 -2.2,2.9 -2.6,4.7c-0.2,0.7 0,1.5 0.1,2.2c0.3,1.4 0.8,2.7 1.4,4c0.2,0.4 0.4,0.8 0.8,1.1c1,1 2.8,0.6 3.8,-0.4s1.4,-2.4 1.6,-3.8c0.2,-1.4 0.3,-2.8 0.8,-4.1c0.8,-1.9 2.6,-3.5 2.5,-5.5c-0.1,-1 -0.6,-2 -0.8,-3c-0.2,-1 0,-2.3 0.9,-2.7c0.1,0.7 0.2,1.3 0.3,2c2.7,-0.8 -0.6,-9.6 -3.5,-5.2c-1.2,1.8 0,3 -2.3,4c-1.2,0.4 -2.9,0.2 -3.7,1.6z" class="st0"/>
   <path id="svg_4" fill="#D4E4B5" d="m506.6,56.5c-0.1,-0.3 -0.3,-0.5 -0.5,-0.7c-1.6,-1.5 -3.4,-2.7 -5.3,-3.8c1.2,-0.1 2.5,-0.2 3.5,-0.8c1.1,-0.6 1.9,-1.7 1.8,-2.9c-0.3,-2.1 -3.2,-3.3 -2.9,-5.3c0.1,-0.9 0.9,-1.9 0.5,-2.7c-0.3,-0.6 -1,-0.7 -1.7,-0.8c-3.4,-0.5 -6.8,-0.9 -10.1,-1.4c0.1,1.3 -0.2,2.7 -1.3,3.5c-1,0.8 -2.8,0.5 -3.3,-0.7c-0.2,-0.4 -0.2,-0.9 -0.5,-1.3c-0.6,-0.8 -1.8,-0.3 -2.7,0c-2,0.8 -4.3,0.8 -6.2,0c-0.4,-0.2 -0.8,-0.4 -1,-0.8c-0.2,-0.6 0.2,-1.2 0.2,-1.8c0.1,-1 -1,-1.9 -2.1,-2c-1,-0.1 -2.1,0.3 -3.1,0.7c-2.9,0.9 -6.4,1.1 -8.8,-0.8c-0.7,-0.6 -1.3,-1.3 -2.1,-1.8c-1.1,-0.7 -2.4,-0.8 -3.7,-1c-3.3,-0.3 -6.5,-0.7 -9.8,-1c-0.3,0 -0.7,-0.1 -0.9,0.1c-0.4,0.3 -0.3,0.9 -0.5,1.4c-0.3,1 -1.4,1.5 -2.4,1.5c-1,0.1 -2,-0.2 -3,-0.1c-0.7,0.1 -1.5,0.4 -2.2,0.3c-0.8,0 -1.6,-0.6 -1.5,-1.3c-0.9,0.6 -1.6,1.7 -1.6,2.8c-1.9,0.2 -4.3,-1.1 -3.9,-3c0.1,-0.5 0.4,-0.9 0.4,-1.4c0.3,-3 -7.3,-3.7 -9,-2.4c-0.5,0.4 -0.8,0.8 -1.3,1.2c-1.8,1.6 -5.2,1 -6.3,-1.2c-2.7,-0.3 -5.4,-0.3 -8,0c-1.1,-1.8 -3.9,-1 -5.7,0.2c-1.8,1.1 -4.4,2.3 -5.8,0.6c4.5,-1 8.9,-3.1 12.5,-6c0.4,-0.3 0.8,-0.7 0.7,-1.2c-0.1,-0.3 -0.3,-0.6 -0.6,-0.7c-1.7,-1.2 -3.8,-1.8 -5.8,-1.7c-1.5,0 -3.3,0.3 -4.2,-0.8c-0.6,-0.7 -0.7,-1.8 -1.4,-2.4c-0.7,-0.6 -1.7,-0.4 -2.6,-0.3c-1.9,0.3 -3.9,0.7 -5.8,1c-0.3,0.1 -0.6,0.1 -0.8,0.3c-0.3,0.3 -0.3,0.8 -0.3,1.2c-0.2,2.6 -3.4,4.4 -5.7,3.2c-0.7,-0.4 -1.3,-1 -2.1,-1.2c-1,-0.3 -2,0 -3,0.4c-4,1.4 -8,2.8 -12,4.2c1.1,0.7 2.5,1 3.7,0.6c0.4,0.7 -0.6,1.3 -1.4,1.4c-3.1,0.6 -6.1,1.3 -9.2,1.9c1.7,1.3 3.4,2.7 5.1,4.2c0.8,-0.6 1.5,0.9 1.2,1.8c-0.3,0.9 -0.8,2.1 -0.1,2.7c-0.9,-0.3 -1.7,-1 -2.2,-1.9c0.5,-0.4 1,-0.7 1.5,-1.1c-1.1,0.2 -2.2,-0.5 -2.6,-1.5c-2,-0.4 -3.8,-1.2 -5.4,-2.4c-0.3,0.7 0.1,1.7 0.9,2c-0.7,0.1 -1.4,0.2 -2.2,0.3c0.2,1.1 1.2,2 2.4,2.2c-1.4,0.4 -3,0 -4.2,-0.9c1.1,-1.6 -0.5,-4.2 -2.4,-3.9c1.1,0.1 1.3,1.7 0.8,2.7s-1.3,1.9 -1.3,3c0,1.4 1.3,3 0.2,3.9c1.3,1.1 3.7,-0.9 4.8,0.4c0.3,0.4 0.4,1 0.5,1.5c0.4,1.5 2.1,2.5 3.6,2.3c-0.9,1.4 -3,0 -3.9,-1.3c-1,-1.3 -3.1,-2.7 -3.9,-1.3c-0.3,0.5 -0.2,1 -0.2,1.6c-0.1,3.9 -4.6,7 -8.2,5.6c1.4,-1.7 4.6,-1 5.7,-2.9c0.4,-0.8 0.3,-1.7 0.2,-2.6c-0.4,-2.9 -0.8,-5.8 -1.3,-8.7c0.3,-1.3 0.3,-2.7 0.3,-4c-1.5,0.5 -4,0.5 -3.9,-1.1c-1.3,2.1 -2.6,4.3 -3.9,6.4c-0.8,1.3 -1.4,3.3 0,4c0.9,-0.4 2,0.4 2.2,1.3c0.3,0.9 -0.1,1.9 -0.5,2.8c-1.9,-5.4 -11.8,-2.9 -14.3,-8c-1.2,0.5 -0.1,2.3 1.1,2.7s2.8,1.2 2.4,2.4c-0.3,0.9 -1.6,0.9 -2.6,0.9c-2.8,-0.2 -5.7,0.5 -8.2,1.9c-0.2,-1 -0.4,-2 -0.7,-3c-2.1,1.5 -4.1,2.9 -6.2,4.4c-1,0.7 -2.1,1.4 -3.3,1.6c-1.2,0.1 -2.6,-0.6 -2.8,-1.8c-0.2,-1.2 1.6,-2.3 2.4,-1.3c0.3,-2.2 -2.7,-4.1 -4.6,-2.8c1.2,2.1 1.3,4.8 0.1,6.9c-0.4,0.8 -1.1,1.5 -2,1.7c-0.9,0.1 -1.9,-0.6 -1.7,-1.5c-1.1,1 -1.7,2.5 -1.7,4c-1.8,0.6 -4,-0.1 -5.1,-1.7c0.1,0.9 0.3,1.7 0.4,2.6c-1.3,1.4 -4.2,0.4 -4.3,-1.5c0,-0.6 0.1,-1.1 0.1,-1.7c0,-1.9 -1.7,-3.4 -3.3,-4.5c2.3,0.9 4.7,1.8 7,2.7c1.3,0.5 2.7,1 4.1,0.7c2,-0.4 3.3,-3.1 1.5,-4.5c-3.2,-2.5 -6.9,-4.4 -10.8,-5.5c-1.1,-0.3 -2.3,-0.6 -3.4,-0.2c-0.9,0.3 -2.1,0.9 -2.6,0.1c0.9,0.1 1.9,-0.2 2.5,-0.9c-1.9,-0.4 -3.8,-0.7 -5.8,-0.8c-2.2,2 -3.8,4.8 -3.1,7.6c1,4.4 6.7,8 4.6,12c2,-0.4 4,-0.9 5.9,-0.4c1,0.3 2,0.9 2.7,1.7l0,-0.1c0.6,-0.2 1.2,-0.4 1.8,-0.2c0.6,0.2 1.1,0.8 0.8,1.4c-0.2,0.4 -0.7,0.7 -0.5,1.1c0.1,0.2 0.4,0.3 0.7,0.4c0.7,0.2 1.1,1.1 0.8,1.8c-1,-0.1 -2.1,-0.1 -3.1,-0.2c-0.3,0.8 -0.8,1.5 -1.2,2.2c-1.4,3.1 -0.4,6.7 -0.3,10.2c0.1,1.8 -0.3,3.7 -1.2,5.2c0.2,0 0.4,-0.1 0.6,-0.1c3.9,-0.7 8.3,0.3 10.7,3.5c2.4,3.1 1.6,8.6 -2.1,10c-1.4,0.6 -3,0.5 -4.3,1.3c-0.5,0.3 -0.9,0.9 -1.1,1.5c2.4,-1.3 4.8,-2.6 7.5,-3.1c-0.6,1.3 -1.7,2.2 -3.1,2.6c0.4,0.3 0.3,1 -0.1,1.3s-1,0.2 -1.5,0.1s-1.1,-0.2 -1.6,-0.1s-0.8,0.5 -1,0.9c-0.1,0.2 -0.1,0.4 -0.1,0.6c0,0.1 0,0.3 0.1,0.4c1.4,-1.1 3.5,-1.2 4.9,-0.1c0.5,0.4 1,1 1.5,1.4c0.6,0.4 1.5,0.6 1.9,1.2c0.5,0.6 0.1,1.8 -0.6,1.7c0,0.4 0.4,0.6 0.7,0.7c0.4,0.1 0.8,0 1.1,0.2c0.8,0.4 0.6,1.6 0,2.2c-0.7,0.5 -1.6,0.6 -2.5,0.6c-2.3,0 -4.6,0.1 -6.7,-0.9c-1,-0.4 -1.9,-1.1 -2.9,-1.4c-1,-0.4 -2.2,-0.4 -3.1,0.3c-0.4,0.3 -0.6,0.8 -1,1.1c-0.9,0.8 -2.4,1 -3.4,0.3c-0.8,-0.6 -1.2,-1.7 -1,-2.7c-0.9,1 -1.7,2.1 -2.3,3.3c0.5,1.4 1,2.9 1.5,4.3c0.2,0.5 0.3,0.9 0.5,1.4c0.5,1.4 1.3,3 2.7,3.1c1.9,0.1 3.7,-2.4 5.2,-0.1c0.3,0.4 0.4,1 0.4,1.5c0,1 1.4,2.3 2.2,1.5c-0.1,-0.7 -0.2,-1.5 0.2,-2.2c0.3,-0.7 1.3,-1.1 1.9,-0.6c0.4,0.3 0.5,0.9 0.5,1.4c0,0.7 0,1.5 -0.1,2.2c-0.2,1.8 -0.9,3.6 -2.4,4.5c-1.2,0.7 -2.8,1.3 -1.9,2.8c0.2,0.3 1.1,-0.1 1.3,0.3c0.6,0.8 0.2,1.6 0.2,2.5c0.1,1.9 2.3,2.9 3.5,4.4c1.7,2.1 1.3,5.1 2.1,7.7c1.7,5.2 8.2,8.6 7.9,14c-0.1,2.1 -1.2,4.8 0.6,6c1.2,0.8 2.8,0.2 4.1,-0.4c2.4,-1.1 4.9,-2.2 7.3,-3.4c1,-0.5 2,-1 2.5,-1.9c0.3,-0.5 0.3,-1.1 0.7,-1.5c0.5,-0.6 1.5,-0.7 2.3,-1c1.8,-0.6 3,-2.3 3.9,-4c1,-1.8 1.7,-3.7 2.3,-5.7c0.1,-0.5 0.3,-1.1 0.1,-1.6c-0.5,-1.9 -3.9,-2.1 -4,-4.1c-0.1,-0.8 0.5,-1.6 0.8,-2.4c0.3,-0.8 0,-2 -0.9,-1.9c-0.5,1.5 -1,3 -2.2,4.1c-1.1,1.1 -3,1.5 -4.2,0.6c-0.9,-0.7 -1.2,-1.9 -1.8,-2.9c-0.9,-1.5 -2.7,-2.4 -3.5,-3.9c-0.8,-1.6 0.4,-4.2 2,-3.5c0.8,2.9 2.8,5.5 5.5,7c1.7,-0.6 3.2,-1.3 4.7,-2.2c0.7,-0.6 1.7,0.5 1.8,1.5c0.1,1 -0.1,2.1 0.7,2.7c0.4,0.3 0.9,0.3 1.4,0.3c4,0 8,-0.5 11.9,-1.4c-0.8,2.3 1.3,5.1 3.8,5c-0.3,1 -1.3,1.7 -2.2,1.7c0.5,0.9 1,1.9 1.8,2.5c0.9,0.6 2.2,0.8 2.9,0c0.7,-0.7 0.8,-2 1.7,-2.4c1.1,-0.4 2.1,0.9 2,2c-0.1,1.2 -0.8,2.1 -1.2,3.2c-0.8,2.2 -0.1,4.7 0.7,6.9c1.4,4.3 2.8,8.8 5.7,12.4c1,-1 2,-1.9 3.1,-2.9c1.4,0.2 1.4,2.2 1,3.5s-0.9,3.1 0.3,3.9c1.1,0.6 2.5,-0.4 2.8,-1.6c0.2,-1.2 -0.3,-2.4 -0.9,-3.6c-0.7,-1.4 -1.4,-2.9 -2.1,-4.3c-0.2,-0.5 -0.5,-1 -0.5,-1.6c0,-0.5 0.3,-0.9 0.5,-1.3c0.6,-1.4 0.8,-3 0.6,-4.5c3.8,-1.9 6.9,-5 8.8,-8.7c0.3,-0.6 0.6,-1.2 1.1,-1.5c1.5,-1.1 4.1,0.5 5.5,-0.9c1.9,0.7 3.5,2.2 4.4,4c0.7,1.3 1.3,3.1 2.7,3.2c-2.3,0.9 -3.8,3.4 -3.6,5.8c2.3,0.6 4.8,-1.6 4.6,-3.9c0.9,-0.5 2.1,0.1 2.5,1c0.5,0.9 0.4,2 0.4,3c-0.2,3.1 -0.4,6.2 -0.5,9.2c-0.1,0.9 -0.1,1.9 0.4,2.7c0.5,0.7 1.4,1.1 1.7,1.9c0.5,1.2 -0.5,2.7 0.1,3.8c0.3,0.6 1,0.8 1.6,1.3c1.1,0.9 1.5,2.4 2.3,3.6c0.8,1.2 2.7,2 3.6,0.8c-1.9,-1.5 -3.1,-3.8 -3.2,-6.2c0,-0.6 0,-1.1 -0.2,-1.6c-0.3,-0.6 -0.9,-1 -1.4,-1.5c-3,-2.7 -2.6,-7.4 -2,-11.4c1.4,2 3.6,3.4 6,3.9c-0.8,1.6 -0.1,3.7 1.4,4.6c0.1,-1.6 1.3,-3 2.8,-3.4c0.7,-0.2 1.4,-0.2 2,-0.5c1.9,-0.8 2.1,-3.3 2,-5.3c0,-0.8 -0.1,-1.6 -0.5,-2.3c-0.7,-1.1 -2.2,-1.3 -3.3,-2c-2,-1.2 -3,-3.9 -2.2,-6.1c0.8,-2.2 3.3,-3.6 5.6,-3.1c0.8,0.3 0.4,1.5 -0.2,2c-0.7,0.5 -1.6,0.8 -1.9,1.6c-0.4,1.1 0.9,2.3 2,2c1.1,-0.2 1.9,-1.4 1.9,-2.6c0.1,-1.2 -0.3,-2.3 -0.8,-3.4c2.4,0.5 5.1,-0.3 6.8,-2.2c0.5,-0.5 0.9,-1.1 1.5,-1.5c1.2,-0.7 2.9,-0.3 3.8,-1.3c0.7,-0.7 0.7,-1.9 0.9,-3c0.4,-1.9 1.9,-3.4 2.8,-5.1c0.9,-1.7 1.7,-4.4 1.3,-6.3c-0.3,-1.4 -1.1,-2.7 -1.6,-4c-0.4,-1 -0.6,-1.9 -0.7,-3c-0.1,-0.4 -0.1,-0.9 0.1,-1.2c0.3,-0.7 1.2,-0.8 1.8,-1.2c0.9,-0.6 1.4,-1.8 1.1,-2.9c-2.6,0.9 -5.6,0.2 -7.6,-1.7c0.6,-1.1 1.9,-1.6 3,-2.2s2.3,-1.5 2.2,-2.8c0.7,0 1.4,0 2.1,0c0.1,1.2 -0.5,2.3 -1.4,3c1,0.8 2.4,0 3.5,-0.6s3,-0.6 3.2,0.7c0.1,1.2 -1.7,2 -1.5,3.2c1.3,-0.4 2.7,1.3 2,2.5c-0.2,0.3 -0.5,0.6 -0.4,1s0.6,0.6 1,0.8c1.1,0.6 1.6,2.1 1,3.2c0.8,-0.6 1.5,-1.2 2.3,-1.8c0.2,0.7 1,1.2 1.7,1s1.2,-1 1,-1.7c-0.1,-0.7 -0.8,-1.2 -1,-1.8c-0.3,-1 0.4,-2.1 0.1,-3.1c-0.3,-0.8 -1.1,-1.2 -1.8,-1.7c-0.7,-0.5 -1.3,-1.4 -0.9,-2.1c0.2,-0.4 0.8,-0.6 1.2,-0.9c2.1,-1.3 2.6,-5.1 5.1,-5.2c0.5,0 1,0.1 1.5,0.1c1.4,-0.2 1.9,-1.9 2.6,-3.2c1.5,-2.9 5,-4.3 6.5,-7.1c1.2,-2.2 1.1,-4.8 1.8,-7.2c0.5,-1.7 1.5,-3.5 0.9,-5.2c-0.8,-2.1 -4.2,-2.5 -5.4,-0.7c0.2,-1.1 0.4,-2.1 0.6,-3.2c-0.8,2.4 -5.7,0.2 -1.4,-2.1c2.9,-1.6 5.5,-3.7 7.6,-6.3c0.7,-0.9 1.4,-1.8 2.3,-2.4c3.4,-2.3 8.1,0.6 12.1,-0.5c0.1,0.4 0.3,0.8 0.4,1.2c-1.1,0.4 -2.1,0.9 -3.2,1.3c2.3,1.1 4.7,-1.5 7.2,-1.3c0.7,0 1.8,0 1.8,-0.7c-0.7,-0.1 -1.5,-0.5 -1.4,-1.1c0,-0.2 0.2,-0.4 0.4,-0.6c0.6,-0.7 1.3,-1.4 2,-2.1c1.1,-1.2 2.9,-2.4 4.1,-1.4c0.9,0.8 0.5,2.6 -0.7,2.8c0.8,0.8 2.1,0.1 2.9,-0.7s1.8,-1.7 2.8,-1.3c0.3,-0.6 0.3,-1.3 0,-1.9c0.8,-0.5 1.9,-0.6 2.8,-0.3c-0.6,0.5 -0.9,1.1 -1,1.9c-0.1,0.5 0,0.9 -0.2,1.4c-0.5,1.7 -2.7,1.9 -4.3,2.6c-2.8,1.3 -3.7,4.9 -6.2,6.7c-0.6,0.4 -1.3,0.8 -1.8,1.3c-1.1,1.2 -1,3.1 -0.4,4.6c0.5,1.5 1.4,3 1.5,4.7c0,0.3 0,0.6 0,0.9c-0.1,1.1 1.2,1.7 2,0.9c0.2,-0.2 0.4,-0.4 0.6,-0.6c0.9,-0.9 1.8,-1.8 2.2,-3c0.3,-0.8 0.4,-1.9 1.2,-2.3c0.6,-0.3 1.3,-0.2 1.9,-0.3c0.6,-0.1 1.3,-0.8 1,-1.3c-1.1,-0.8 -0.9,-2.7 0.3,-3.2c0.5,0.2 1,0.5 1.5,0.7c1.2,-0.5 -0.6,-2.4 0,-3.6c0.2,-0.4 0.8,-0.7 0.8,-1.2c0,-0.6 -0.9,-0.7 -1.5,-0.6c-0.4,-2 1,-4.2 2.9,-4.7c0,0.4 -0.1,0.8 -0.1,1.2c1,-0.6 1.9,-1.2 2.9,-1.8c0.2,0.5 0.3,0.9 0.5,1.4c1.2,0.6 2.1,-2 3.3,-1.6c0.3,0.1 0.4,0.3 0.7,0.5c0.9,0.7 2.4,0.2 2.7,-0.9c0.9,-4.1 5.9,-4.3 10.2,-4.7c0.9,-0.5 2.3,-1 2.1,-1.9zm-186.5,50.6c-0.7,0.6 -1.7,0.8 -2.7,0.7c-0.2,0.2 -0.1,0.6 0.2,0.7c0.3,0.2 0.6,0.2 0.8,0.4c0.4,0.4 0.2,1 0.3,1.6c0.1,0.9 0.9,1.5 1.1,2.4c0.4,1.5 -1.3,2.9 -2.9,2.9c-3.3,0 -5.6,-2.6 -6.4,-5.5c-0.5,-1.6 -1.4,-6.1 1.1,-6.3c-0.8,-1 0,-2.1 -0.4,-3.2c-0.3,-0.6 -0.9,-0.9 -1.3,-1.3c-0.9,-0.9 -0.7,-2.5 0,-3.5s1.9,-1.7 3.1,-2.1c1.2,-0.5 2.5,-0.8 3.6,-0.3c1.2,0.5 1.8,2.1 1,3c-0.9,1 -2.8,0.4 -3.7,1.5c-0.5,0.6 -0.3,1.7 0.2,2.3c0.5,0.6 1.3,1 2.1,1.3c0.4,0.2 0.9,0.4 1.1,0.8c0.3,0.6 -0.3,1.3 -0.6,1.9c-0.3,0.6 -0.3,1.7 0.4,1.7c0.7,0 0.8,-1 1.2,-1.5c0.5,-0.8 1.9,-0.7 2.4,0.1c0.3,0.6 0.1,1.8 -0.6,2.4zm82.1,-30.6c-0.1,0.3 -0.3,0.6 -0.4,0.9s-0.1,0.7 -0.2,1.1c-0.3,1 -1.2,1.7 -2.1,2.4c-0.6,0.4 -1.2,0.9 -1.6,1.6c-0.1,0.3 -0.3,0.6 -0.4,0.8c-0.9,1.5 -3.5,1.8 -1.8,-0.3c1,-1.3 2.5,-3.1 3.8,-4.2c0.4,-0.4 1,-0.7 1.2,-1.2c0.5,-0.8 0.2,-1.8 0.2,-2.7c0,-0.9 0.7,-2 1.6,-1.8c0.3,1.1 0.2,2.3 -0.3,3.4zm-111.9,-16.1c0,0.1 0,0.2 0,0.3c0,0.4 -0.1,0.7 -0.2,1c0.1,0 0.3,0 0.4,0c0.2,-0.5 0.1,-0.9 -0.2,-1.3zm-6.8,22.1c1.7,-0.1 2.9,-1.2 3.7,-2.6c-1.6,0.4 -3.1,1.2 -3.7,2.6z" class="st0"/>
   <path id="svg_5" fill="#D4E4B5" d="m296.5,93.3c-1.4,0.6 -3,0.5 -4.3,1.3c-0.5,0.3 -0.9,0.9 -1.1,1.5c-0.2,0.1 -0.4,0.2 -0.6,0.3c-3.7,2.1 -2.3,-2.5 -5.8,-2.5c-3.4,0 -2.4,5.7 -3.9,5.2c-0.4,0.9 0.2,1.9 0,2.8c-0.1,0.3 -0.3,0.6 -0.4,0.9c-0.1,0.2 -0.1,0.4 -0.2,0.6c-0.9,1 -1.7,2.1 -2.3,3.3c0,-0.1 -0.1,-0.3 -0.1,-0.4c-0.8,-0.8 -2.3,0.1 -2.6,1.2c-0.3,1.1 0.2,2.3 0.6,3.4c0.3,1.1 0.4,2.4 -0.4,3.3c-0.4,0.4 -1.1,0.7 -0.5,1.7c0.2,0.4 0.7,0.5 1.1,0.4c0.9,-0.1 1.7,1.5 0.8,1.6c-1.6,0.2 -2.8,-1.5 -3.3,-3s-0.8,-3.3 -2.2,-4.2c-0.7,-0.4 -1.6,-0.6 -1.9,-1.4c-0.5,-1.2 1,-2.6 0.5,-3.8c-0.6,-1.2 -2.5,-0.7 -3.5,-1.6c-0.8,-0.7 -0.7,-2.2 -1.5,-2.9c-0.4,-0.4 -1,-0.5 -1.5,-0.7c-1.7,-0.6 -3,-2 -3.7,-3.6c-1,0.2 -0.8,1.6 -0.4,2.4c1.7,3.3 4.5,6 7.8,7.7c-1.1,0.5 -1.6,1.8 -2,2.9c-0.7,1.7 -1.3,3.4 -2,5.1c-1,-0.1 -2.1,-0.3 -2.9,-0.9s-1.3,-1.9 -0.6,-2.7c1.1,1.1 3.3,0.7 3.9,-0.7c0.7,-1.4 -0.4,-3.3 -1.9,-3.5c0.6,-1.8 -1.4,-3.4 -3.2,-4.1c-1.8,-0.7 -4,-1.6 -4.3,-3.5c-0.8,-0.7 -2.2,-0.4 -3.1,0.3c-0.9,0.7 -1.7,1.6 -2.7,1.9c-1,0.4 -2.5,-0.2 -2.5,-1.4c-0.5,0.5 -1.1,0.9 -1.6,1.4c1.2,0.3 0.5,2.3 -0.6,2.9s-2.7,0.9 -3,2.2c-0.1,0.5 0,1 0,1.5c0,0.8 -0.4,1.5 -0.7,2.2c-0.9,1.7 -2,3.7 -4,4c-1.1,0.2 -2.9,0.3 -2.7,1.5c-1.6,-1.4 -3.9,-2.1 -6,-1.7c0.1,-1 0.3,-2 0.4,-3c-0.7,-0.1 -1.5,-0.2 -2.2,-0.3c1.1,-1.6 1.5,-3.7 1.1,-5.6c-0.3,-1.1 -0.6,-2.5 0.5,-2.9c-0.6,-0.5 -1,-1.1 -1.2,-1.9c1.5,-0.7 3.3,-0.7 4.9,-0.2c0.7,0.2 1.3,0.6 2,0.8c2,0.6 4.4,-0.1 5.5,-1.8c1.1,-1.7 0.7,-4.4 -1.1,-5.4c-1,-0.5 -2.1,-0.6 -3,-1.1c-0.9,-0.6 -1.4,-2.1 -0.5,-2.7c0.8,1.2 2.5,1.5 3.7,0.8c-0.5,-0.9 -0.8,-2 -0.7,-3.1c0.8,-0.3 1.9,0.5 1.8,1.4c1.5,0 3,-1 3.5,-2.4c0.2,-0.5 0.2,-1 0.6,-1.4c0.5,-0.5 1.2,-0.6 1.9,-0.9c1.6,-0.6 2.6,-2.6 2.1,-4.2c2.1,-1 4.4,-1.4 6.7,-1.3c-0.8,-1.5 -1.7,-3.1 -1.6,-4.8c0.1,-1.7 1.5,-3.5 3.2,-3.3c0.3,1 0.2,2.1 0,3.1c0.5,0.1 1,0.2 1.5,0.3c-1.1,0.9 -2.2,2.6 -1,3.5c0.9,0.7 2.2,-0.2 3.3,0c0.5,0.1 0.9,0.4 1.4,0.6c2.2,0.6 4.4,-3.1 6.2,-1.8c0.6,0.4 0.9,1.3 2,1.2c0.6,-0.1 1.1,-0.5 1.4,-1c0.6,-1.1 0.4,-2.3 0.5,-3.5c0.1,-1 0.6,-2.2 1.6,-2.4c1.1,-0.3 2.2,0.6 3.3,0.7c1.9,0.2 3.4,-2.4 2.3,-4c-1.5,1.1 -3.3,1.7 -5.1,1.5c-0.5,-0.9 0.6,-2 1.6,-2.4c3.4,-1.5 7.3,-2 10.9,-1.3c0.7,-0.6 -0.3,-1.6 -1.1,-2c-0.8,-0.4 -1.7,-1.4 -1,-2c-2.4,-1 -4.5,2.4 -7.1,2.5c-2.7,0.1 -4.2,-3.4 -3.2,-5.9s3.5,-4 5.8,-5.3c-1.5,-2.4 -5.5,-2.6 -7.3,-0.3c0.2,1.8 -0.5,3.8 -1.9,5s-3.8,2.4 -3.3,4.2c0.4,1.6 3,2.4 2.7,4c-0.3,1.5 -2.8,1.5 -3.4,3c-0.4,1 0.4,2.3 -0.1,3.3s-2,1 -2.9,1.7c-0.6,0.5 -1,1.2 -1.5,1.7c-0.6,0.5 -1.6,0.7 -2,0.1s0.1,-1.4 0.4,-2.2c0.9,-2.1 -0.4,-4.4 -1.7,-6.3c-2.6,-0.2 -3.9,4.7 -6.3,3.7c-0.7,-0.3 -1.1,-1 -1.4,-1.6c-0.9,-1.7 -1.9,-3.5 -2.3,-5.5c-0.3,-2 0,-4.1 1.4,-5.6c1.8,-1.9 4.9,-2 6.9,-3.7c2.3,-1.9 2.8,-5.4 5.3,-7c1.5,-1 3.7,-1.5 3.9,-3.3c-1.6,0.1 -3.2,0.3 -4.8,0.4c0.7,-1.3 2.5,-2 3.9,-1.6c-0.6,-1.3 0.9,-2.7 2.3,-2.9s2.9,0.2 4.3,-0.2c1.1,-0.3 2,-1.2 3.1,-1.6c0.9,-0.4 2,-0.5 3,-0.6c1.1,-0.1 2.3,-0.1 3.4,0c-2.2,2 -3.8,4.8 -3.1,7.6c1,4.4 6.7,8 4.6,12c2,-0.4 4,-0.9 5.9,-0.4c1,0.3 2,0.9 2.7,1.7c-0.1,0.8 0.5,1.5 0.9,2.2c0,0.1 0,0.2 0,0.3c0,0.4 -0.1,0.7 -0.2,1c-1.7,-0.1 -5.6,-0.9 -3.7,1.9c0.8,-1 1.2,-0.4 2.2,-0.5c0.4,0 0.8,-0.5 0.6,-0.8c0.2,0 0.4,0 0.7,0c-0.3,0.8 -0.8,1.5 -1.2,2.2c-1.4,3.1 -0.4,6.7 -0.3,10.2c0.1,1.8 -0.3,3.7 -1.2,5.2c0.2,0 0.4,-0.1 0.6,-0.1c3.9,-0.7 8.3,0.3 10.7,3.5c2,3 1.2,8.4 -2.5,9.9z" class="st0"/>
   <path id="svg_6" fill="#D4E4B5" d="m223.8,78.3c0,1 0.9,1.8 0.7,2.8c-0.3,0.9 -1.6,1.3 -1.6,2.3c-0.1,1.1 1.4,1.5 2.5,1.2c1.9,-0.4 3.7,-1.6 4.8,-3.2c0.5,-0.8 0.8,-2.2 -0.2,-2.5c1.3,-0.4 2.5,-0.9 3.8,-1.3c1,0.8 2,2.2 1.2,3.3c-0.5,0.6 -1.8,1.1 -1.4,1.8c0.2,0.3 0.6,0.5 0.6,0.8c0.1,0.4 -0.3,0.6 -0.5,0.9c-1.2,1 -1.9,2.5 -1.8,4.1c1.8,-1.6 4.2,-2.5 6.6,-2.4c0.6,0 1.2,0.1 1.6,-0.3c0.4,-0.4 0.2,-1.3 -0.3,-1.2c0.7,-0.5 1.4,-1 2,-1.5c0.2,-0.1 0.3,-0.2 0.4,-0.4c0.2,-0.4 -0.2,-0.8 -0.6,-1c-0.4,-0.1 -0.9,-0.1 -1.3,-0.3c-0.9,-0.4 -1,-1.6 -1.3,-2.5s-1.4,-1.9 -2.1,-1.2c0.2,-0.9 0.4,-1.8 0,-2.7c-0.4,-0.8 -1.5,-1.4 -2.2,-0.9c-0.4,-0.6 0.6,-1.2 1.1,-1.8c0.6,-0.6 0.5,-1.7 0,-2.2c-0.6,-0.6 -1.6,-0.6 -2.2,0c0.1,-1.7 0.4,-3.8 2.1,-4.3c0.4,-0.1 0.9,-0.1 1.4,-0.3c0.4,-0.2 0.9,-0.6 0.8,-1c0.1,0.5 1,0.6 1.3,0.1c0.3,-0.4 0.3,-1.1 0.2,-1.6c-1.3,-0.4 -1.8,1.8 -3.1,2.2c-0.6,0.2 -1.2,0 -1.8,0.2c-1.3,0.6 -1,3 -2.4,3.4c-0.3,0.1 -0.7,0 -1,0.2c-0.6,0.3 -0.7,1.1 -0.5,1.8c0.2,0.7 0.4,1.4 0.1,2c-0.2,0.3 -0.5,0.7 -0.4,1c0.2,0.5 0.9,0.3 1.3,0.5c1.2,0.4 0.5,1.8 -0.1,2.4c-0.8,0.7 -2.1,0.5 -3,0.4c-1.4,-0.2 -4.7,-1.4 -4.7,1.2z" class="st0"/>
   <path id="svg_7" fill="#D4E4B5" d="m253.5,106.1c-0.2,-0.1 -0.3,-0.3 -0.5,-0.4c0.5,-0.1 0.8,-0.6 0.9,-1.2c0,-0.5 -0.2,-1 -0.5,-1.4c-0.3,-0.5 -0.9,-1 -1.5,-0.8c-0.7,0.3 -0.8,1.3 -0.5,2.1c0.2,0.7 0.6,1.6 0.1,2.3c0.3,-0.1 0.6,0 0.8,0.2c-1.1,0.7 -1.3,2.9 0.3,3s1.9,-1.9 0.3,-2.3c0,-0.1 0.7,-1.5 0.6,-1.5z" class="st0"/>
   <path id="svg_8" fill="#D4E4B5" d="m434.9,123.4c0.1,-0.9 0.2,-1.9 0.9,-2.3c0.2,0.6 0.7,1.1 1.2,1.4c0.5,-0.3 0.8,-0.8 1.1,-1.3c0.3,-0.5 0.7,-1 1.3,-1.1s1.2,0.5 0.9,1c1.5,0.6 2.5,-1.6 3.8,-2.4c0.7,-0.4 1.6,-0.5 2.4,-0.7s1.7,-0.7 1.8,-1.6c0.1,-0.5 -0.1,-1 -0.2,-1.5c0,-1 0.8,-1.9 1.3,-2.8c0.9,-1.6 0.9,-3.6 0.1,-5.3c-0.5,-0.9 -1.1,-1.7 -1.4,-2.6c-0.2,-1 0.3,-2.2 1.3,-2.2c0.3,0.8 0.6,1.8 1.5,2.1c0.8,0.3 1.9,-0.7 1.3,-1.4c0.9,-0.3 1.9,-0.3 2.9,-0.2c0.4,-0.6 0.3,-1.5 -0.2,-2c3,-1.1 5.7,-3.2 7.7,-5.7c-2.8,1.7 -5.5,3.4 -8.3,5.2c-0.3,0.2 -0.7,0.4 -1.1,0.3c-0.3,-0.1 -0.5,-0.5 -0.7,-0.8c-0.7,-1.4 -2.3,-2.3 -3.9,-2.3c0.1,1.3 0.3,2.6 0.4,4c-0.9,-0.2 -1.8,0.7 -2,1.6s0,1.9 0.1,2.9c0.3,3.4 -1.3,6.8 -4,8.8c0,-0.5 0,-1.1 0,-1.6c-1.4,0.2 -0.8,2.9 -2.1,3.6c-0.4,0.2 -0.8,0.2 -1.2,0.2c-2,0.2 -2,2.3 -4.2,1.5c-0.2,2.7 -3.6,2.2 -3.4,4.9c0.1,2.3 2.3,4 2.7,0.3z" class="st0"/>
   <path id="svg_9" fill="#D4E4B5" d="m452.7,81.2c0,0.2 0.1,0.4 0,0.6c-0.1,0.4 -0.3,0.7 -0.5,1c-0.2,0.6 0.2,1.3 0.7,1.7c0.5,0.5 1,0.8 1.3,1.4c0.5,1 0.1,2.3 0.9,3.1c-0.2,0.6 -1.1,0.4 -1.6,0s-1.1,-0.8 -1.6,-0.5c-0.6,0.9 -0.3,2.1 0.2,3.1s1.1,2 1,3.1c0,0.5 -0.4,1.1 -0.9,1c-0.2,0 -0.3,-0.2 -0.5,-0.3c-0.7,-0.7 -1.4,-1.4 -1.5,-2.3c-0.1,-0.7 0.1,-1.3 0.3,-2c0.4,-1.4 0.4,-2.8 0.2,-4.2c-0.1,-0.6 -0.2,-1.2 -0.2,-1.8c0,-1.1 0.6,-2.4 0,-3.3c-0.2,-0.3 -0.5,-0.6 -0.4,-0.9c0.3,-0.6 1.5,-1.6 2,-2.1c0.4,0.8 0.5,1.6 0.6,2.4z" class="st0"/>
   <path id="svg_10" fill="#D4E4B5" d="m382.1,175.9c0.9,0.7 2.1,1.2 2.6,2.2c0.4,0.8 0.4,1.8 1,2.4c0.3,0.3 0.8,0.5 1.2,0.8c0.8,0.7 0.6,2.1 1,3.1c0.6,1.5 2.3,2.3 2.6,3.8c0.1,0.5 0,1.1 0.3,1.6c0.4,0.9 1.7,1.1 2.4,1.9c0.3,0.4 0.5,0.8 0.8,1.3c0.8,1.1 2.5,1.5 3.8,0.9c-0.4,-0.7 -0.7,-1.5 -0.7,-2.3c0,-0.5 0.1,-1 0,-1.4c-0.2,-1.1 -1.3,-1.9 -1.6,-3c0.5,-0.4 1.2,0.2 1.5,0.7c0.4,0.5 1,1.1 1.5,0.7c-1,-1.3 -2.1,-2.4 -3.3,-3.4c0.1,0.5 -0.5,0.8 -1,0.6c-0.4,-0.2 -0.7,-0.6 -0.9,-1c-0.2,-0.3 -0.4,-0.6 -0.3,-1c0,-0.3 0.2,-0.6 0.2,-0.8c0.1,-0.6 -0.3,-1.2 -0.8,-1.5c-0.5,-0.4 -1.1,-0.6 -1.5,-1c-0.9,-0.9 -1,-2.4 -2.1,-3c-0.5,-0.3 -1.1,-0.3 -1.7,-0.5c-1.6,-0.8 -1.9,-3.2 -3.8,-4c-2.6,-1.4 -3.2,1.4 -1.2,2.9z" class="st0"/>
   <path id="svg_11" fill="#D4E4B5" d="m398.3,194c-0.4,0.5 -0.8,1.1 -1.2,1.6c-0.1,0.1 -0.2,0.2 -0.2,0.4c0,0.4 0.6,0.5 1,0.4c1.3,-0.2 2.5,-0.1 3.8,0.2c2.1,0.5 4.1,1.7 6.2,1.5c0.3,0 0.6,-0.1 1,0c0.3,0.1 0.7,0.2 1,0.3c0.8,0.2 1.7,0.1 2.3,-0.3c-0.6,-0.6 -1.5,-0.5 -2.3,-0.6s-1.7,-0.4 -1.8,-1.2c0,-0.2 0,-0.4 0,-0.6c-0.1,-0.4 -0.6,-0.7 -1.1,-0.7s-0.9,0.1 -1.4,0c-0.8,-0.1 -1.3,-0.9 -2.1,-1c-0.8,-0.1 -1.1,0.5 -1.7,0.5c-1.3,0.1 -2.3,-2.1 -3.5,-0.5z" class="st0"/>
   <path id="svg_12" fill="#D4E4B5" d="m416.4,198.6c0.7,0 1.3,0.5 2,0.3c0.2,-0.1 0.3,-0.2 0.5,-0.2s0.4,0.1 0.6,0.2c1.8,0.8 4,-1.6 5.8,-0.8c-0.4,1.8 -2.8,2.4 -3.7,3.9c1.6,-0.2 3.1,-1.1 4.2,-2.3c0.3,-0.3 0.6,-0.7 0.9,-0.9c0.2,-0.1 0.5,-0.2 0.7,-0.4c0.5,-0.3 0.8,-0.9 0.8,-1.5c-0.5,0 -1.1,0.1 -1.6,0.4c-0.4,0.2 -0.7,0.5 -1.1,0.6c-0.7,0.2 -1.3,-0.2 -2,-0.3c-1.4,-0.2 -2.8,1.3 -4.1,1c-0.5,-0.1 -0.8,-0.7 -1.4,-0.8c-0.5,-0.1 -1.4,0.1 -1.9,0c-0.7,-0.1 -2,-0.8 -2.5,-0.1c-1.6,2.1 2.4,0.9 2.8,0.9z" class="st0"/>
   <path id="svg_13" fill="#D4E4B5" d="m416,200.5c0.3,-0.3 0.8,-0.1 1.1,0.2c0.3,0.3 0.5,0.7 0.8,1c0.4,0.2 0.9,0.2 1.2,-0.1c0.2,-0.2 0.3,-0.4 0.2,-0.7c-0.1,-0.2 -0.4,-0.3 -0.6,-0.4c-0.2,-0.1 -0.5,-0.2 -0.7,-0.2c-0.4,-0.1 -0.8,-0.3 -1.3,-0.2c-0.4,0.1 -0.9,0.4 -0.9,0.8" class="st0"/>
   <path id="svg_14" fill="#D4E4B5" d="m404.5,188.1c-0.8,0.1 -1.8,0.1 -2.1,-0.6c-0.2,-0.4 0,-0.9 0,-1.4c0,-0.8 -0.5,-1.4 -0.8,-2.1c-0.6,-1.2 -0.8,-2.5 -0.6,-3.8c0.1,-0.3 0.1,-0.7 0.4,-0.9c0.1,-0.2 0.3,-0.3 0.5,-0.4c0.7,-0.4 1.4,-0.8 2.2,-1.1c0.9,-0.5 1.9,-1 2.8,-1.6c2.2,-1.5 4,-3.5 5.2,-5.9c0.4,-0.4 1.1,0 1.4,0.5s0.3,1.2 0.8,1.6c0.6,0.6 2,0.8 1.9,1.7c0,0.4 -0.3,0.6 -0.6,0.9c-0.9,0.9 -1.2,2.3 -0.9,3.5c0.3,1.2 1.3,2.2 2.5,2.6c-1.1,0.1 -2.5,0.5 -2.5,1.6c0,0.7 0.6,1.4 0.2,2s-1.4,0.3 -1.9,0.9c-0.4,0.4 -0.1,1.1 -0.1,1.7c0.2,1.4 -0.9,2.9 -2.3,3.1c-0.6,0.1 -1.3,-0.1 -1.6,-0.6c-0.2,-0.3 -0.2,-0.6 -0.3,-0.9c-0.5,-1.2 -1.3,-0.5 -2.1,-0.5c-0.6,0 -1.4,-0.4 -2.1,-0.3z" class="st0"/>
   <path id="svg_15" fill="#D4E4B5" d="m425.7,179.7c0.1,0 0.3,-0.1 0.4,-0.1c-0.3,-0.2 -0.6,-0.1 -0.9,0.1c-0.3,0.2 -0.5,0.5 -0.7,0.7c-0.8,0.8 -1.9,1.3 -3,1.2c-0.7,-0.1 -1.4,-0.3 -2.1,-0.2c-0.9,0.2 -1.5,0.9 -1.8,1.8c-0.1,0.4 0,1.1 0.4,1c0.2,-0.7 0.9,-1.3 1.7,-1.5c0.7,-0.2 1.6,-0.2 2.3,-0.1c0.6,0.1 1.2,0.3 1.8,0.2c0.6,-0.1 1.2,-0.5 1.3,-1.1c0.1,-0.4 -0.2,-0.9 0,-1.3c0.2,-0.4 0.6,-0.7 0.4,-1c0,0 0.4,0.3 0.2,0.3z" class="st0"/>
   <path id="svg_16" fill="#D4E4B5" d="m416.3,189.6c0.3,1.3 0.9,2.6 0.4,3.8c0.5,0.2 1.1,-0.2 1.3,-0.7c0.2,-0.5 0,-1.1 -0.1,-1.7c-0.1,-0.5 -0.3,-1.1 -0.1,-1.6c0,-0.1 0.1,-0.2 0.2,-0.3c0.1,0 0.1,0 0.2,0c0.7,0.2 1.2,0.9 1.4,1.5c0.2,0.7 0.2,1.4 0.3,2.1c0.1,0.4 0.2,0.9 0.6,1.2c0.6,0.4 1.5,-0.1 1.7,-0.8s0,-1.5 -0.1,-2.2c-0.1,-1 -0.2,-2.2 -1.1,-2.7c-0.4,-0.2 -0.9,-0.3 -1,-0.7c-0.1,-0.5 0.4,-0.9 0.9,-1c0.4,-0.1 0.9,-0.2 1.3,-0.3c0.5,-0.1 1.2,-0.2 1.3,-0.8c0.1,-0.6 -0.7,-0.8 -1.2,-0.9c-0.7,-0.1 -1.4,-0.2 -2,-0.1c-0.7,0.1 -1.4,0.4 -1.7,1c-0.1,0.1 -0.1,0.3 -0.3,0.3c-0.2,0.1 -0.4,-0.1 -0.5,-0.2c-0.1,-0.2 -0.2,-0.4 -0.3,-0.5c-1.3,-1.9 -1.3,4.1 -1.2,4.6z" class="st0"/>
   <path id="svg_17" fill="#D4E4B5" d="m428.5,188.4c-0.7,-0.2 -1.5,-0.2 -2.3,0.1c-0.1,0 -0.3,0.1 -0.3,0.2c0,0.1 0.2,0.2 0.3,0.3c0.7,0.2 1.5,0.1 2.1,-0.2c-0.1,-0.3 -0.5,-0.4 -0.8,-0.3" class="st0"/>
   <path id="svg_18" fill="#D4E4B5" d="m431.7,188c-0.4,-0.2 -0.9,-0.1 -1.2,0.1c-0.3,0.3 -0.5,0.7 -0.3,1.1c0.7,0.2 1.5,-0.7 2.2,-0.4c0.5,0.2 0.7,0.8 1.2,0.9c0.4,0 0.7,-0.6 0.5,-0.9c-0.2,-0.3 -0.7,-0.3 -0.9,-0.5c-0.5,-0.4 -0.2,-1.2 0.2,-1.8c-0.6,-0.1 -1,0.5 -1.1,1.1c0,0.3 0,0.5 -0.2,0.7c-0.1,0.2 -0.4,0.4 -0.6,0.3" class="st0"/>
   <path id="svg_19" fill="#D4E4B5" d="m428.6,184.5c0,0.2 0,0.4 0.1,0.6c0.1,0.2 0.3,0.3 0.5,0.2c0.1,-0.1 0.2,-0.2 0.3,-0.4c0.2,-0.5 0.4,-1 0.2,-1.5c-0.1,-0.2 -0.3,-0.4 -0.3,-0.6c-0.2,-0.6 0.5,-1 1,-0.9c-0.1,-0.8 -0.8,-0.2 -0.8,-1.1c0,-0.1 1.5,-0.7 0.3,-0.9c-1.8,-0.2 -1.3,3.5 -1.3,4.6z" class="st0"/>
   <path id="svg_20" fill="#D4E4B5" d="m435.4,183.5c-0.8,0.1 -1.6,0 -2.2,-0.4c-0.6,0.5 -0.2,1.4 0.4,1.8s1.4,0.5 2,0.8s1.1,1.2 0.7,1.8c0.5,0.1 1,0.3 1.5,0.4c0.1,0.5 -0.4,0.8 -0.8,1.1s-0.8,1 -0.3,1.2c0.2,0.4 0.8,0.4 1.3,0.1c0.4,-0.2 0.9,-0.6 1.3,-0.4c0.3,0.1 0.5,0.4 0.7,0.6c0.9,0.9 2.3,1.1 3.5,1.7c1.2,0.6 2.2,2 1.6,3.1c-0.2,0.4 -0.7,0.7 -1,1.1c-0.3,0.4 -0.5,0.9 -0.3,1.3c1,0.1 2.1,-0.3 2.9,-0.9c0.8,0.9 1.8,1.7 3,2s2.6,-0.2 3.1,-1.3c0.1,-0.2 0.2,-0.5 0.3,-0.6c0.3,-0.2 0.6,-0.1 1,-0.1c1,0.3 2,0.6 2.9,1.1c0.2,0.1 0.4,0.2 0.5,0.4c0.1,0.3 0,0.6 -0.1,0.8c-0.1,1 1.1,1.7 2.2,1.8c1.4,0.2 2.8,0.4 4.3,0.4c0,-0.7 -0.7,-1.2 -1.4,-1.4c-0.7,-0.2 -1.5,-0.2 -2,-0.7c-0.6,-0.6 -0.7,-1.6 -1.3,-2.1c-0.5,-0.4 -1.4,-0.7 -1.2,-1.3c0.1,-0.7 1.3,-0.6 1.5,-1.2c0.1,-0.4 -0.2,-0.8 -0.6,-1c-0.4,-0.1 -0.8,-0.1 -1.2,-0.2c-1,-0.2 -1.9,-1.1 -2,-2.2c0,-0.4 0,-0.8 -0.1,-1.2c-0.2,-0.6 -0.9,-0.8 -1.5,-1c-3.1,-1 -6.1,-2 -9.2,-3c-0.4,-0.1 -0.9,-0.3 -1.4,-0.1c-1.2,0.4 -1.1,2.5 -2.3,2.7c-0.6,0.1 -1.2,-0.4 -1.6,-0.9s-1.1,-1.1 -1.1,-1.8c0,-0.5 0.4,-0.9 0.4,-1.3c-0.5,-1.4 -2.3,-1.2 -3.5,-1.1z" class="st0"/>
   <path id="svg_21" fill="#D4E4B5" d="m459.1,193.1c0.1,0.1 0.3,0.2 0.4,0.2c1.3,0.4 2.7,0.2 3.9,-0.4c0.4,-0.2 0.7,-0.4 1.2,-0.5c0.3,0 0.6,0 0.8,0c0.3,0 0.6,-0.2 0.6,-0.5c0.1,-0.3 -0.1,-0.6 0,-0.8c0.2,-0.2 0.6,-0.1 0.8,-0.4c0.2,-0.2 0,-0.6 -0.3,-0.8c-0.9,-0.9 -1.9,-1.9 -2.9,-2.7c-0.1,1.3 0.8,2.7 -0.2,3.8c-0.5,0.8 -4.6,1.6 -4.3,2.1z" class="st0"/>
   <path id="svg_22" fill="#D4E4B5" d="m471.7,197.1c0.5,0.2 1,0.2 1.4,0.4c0.5,0.2 0.9,0.5 1,1c0,0 0,0 0,-0.1c-0.2,-1.3 -1.4,-2 -2.6,-2.6c-0.1,-0.1 -0.3,-0.2 -0.4,-0.3c0,-0.1 -1.5,0.9 0.6,1.6z" class="st0"/>
   <path id="svg_23" fill="#D4E4B5" d="m485,221.3c-0.1,-0.5 -0.3,-1 -0.6,-1.4c-0.3,-0.4 -0.9,-0.7 -1.4,-0.6c-0.5,1 0.3,2.1 1.2,2.7c0.6,0.4 1.4,0.7 2.1,1c-1,0.1 -1.2,-1 -1.3,-1.7z" class="st0"/>
   <path id="svg_24" fill="#D4E4B5" d="m487.9,212.2c0.4,1 0.7,2.1 0.9,3.2c0.5,-0.3 0.6,-1.1 0.3,-1.5c0.4,0.3 0.4,0.9 0.4,1.3c0.2,1.2 1.2,2.3 2.4,2.6c0.2,-0.4 0,-0.8 -0.2,-1.1c-0.3,-0.3 -0.6,-0.5 -0.9,-0.8c-0.6,-0.5 -0.9,-1.3 -0.9,-2.1c0,-0.7 0.1,-1.6 -0.5,-1.9c-0.1,0.3 -0.2,0.6 -0.3,0.9c-0.2,0 -0.3,-0.2 -0.4,-0.4c-0.4,-1 0,-2.5 -1,-3.2c-0.1,0.4 -0.4,0.9 -0.9,1c0,0.8 0.8,1.4 1.1,2z" class="st0"/>
   <path id="svg_25" fill="#D4E4B5" d="m475.7,197.4c0.7,0.3 1.6,0.2 2.1,0.7s0.4,1.4 0.9,2.1c0.2,0.3 0.5,0.5 0.7,0.7c0.2,0.3 0.3,0.7 0.1,1c-0.3,0.3 -0.9,0.1 -1.1,-0.3c-0.2,-0.4 -0.2,-0.8 -0.3,-1.3c-0.1,-0.4 -0.2,-0.9 -0.7,-1.1c-0.4,-0.1 -0.9,0.1 -1.2,-0.2c-0.1,-0.1 -0.1,-0.2 -0.2,-0.4c-0.4,-1.1 -1.8,-1.6 -2,-2.7c0.6,0.5 1,1.2 1.7,1.5z" class="st0"/>
   <path id="svg_26" fill="#D4E4B5" d="m434.7,195.6c-0.7,0.6 -1.3,1.3 -1.9,2c0.4,0.2 1,0.1 1.3,-0.3c0.3,-0.4 0.4,-0.9 0.1,-1.3" class="st0"/>
   <path id="svg_27" fill="#D4E4B5" d="m439.4,192.7c0.4,0.3 0.8,0.8 0.8,1.3s-0.5,1 -1,0.9c0.1,-0.7 0.2,-1.5 0.2,-2.2" class="st0"/>
   <path id="svg_28" fill="#D4E4B5" d="m434.9,203.9c-0.4,-0.8 -1.4,-1.1 -2.2,-0.6c0.6,0.5 0.7,1.6 0.1,2.2c-0.3,0.3 -0.7,0.5 -1,0.7c-1.1,0.8 -1.1,2.7 -0.1,3.6c-0.5,0.3 -1,0.5 -1.5,0.8c-0.4,-1.3 -1.4,-2.5 -2.7,-3c-1.8,1.1 -3.1,2.9 -3.6,4.9c-0.2,0 -0.4,0.1 -0.6,0.1c-0.1,0.6 -0.2,1.2 -0.3,1.8c-0.5,-0.6 -0.6,-1.4 -0.5,-2.1c-1.1,0.2 -1.7,1.3 -1.9,2.4c-0.3,1 -0.5,2.2 -1.2,2.9c-0.6,0.6 -1.3,0.8 -2.1,1c-1.2,0.4 -2.3,0.7 -3.5,1.1c-1,0.3 -2,0.6 -2.5,1.5c-0.4,0.7 -0.7,1.8 -1.5,1.7c-0.3,0 -0.6,-0.3 -0.9,-0.4c-0.7,-0.2 -1.3,0.6 -1.3,1.3s0.3,1.4 0.5,2c0.2,0.7 0.2,1.5 -0.4,2c0.6,0 1.3,0.3 1.7,0.8c0.4,0.5 0.4,1.3 -0.1,1.8c-0.5,0.4 -1.4,0.2 -1.5,-0.5c1.4,3.8 2.4,7.8 3,11.9c0.2,1.7 0.4,3.4 -0.4,4.9c1.4,1.1 3.4,1.2 4.9,0.3c0.8,-0.5 1.5,-1.3 2.4,-1.7c1.5,-0.7 3.4,-0.3 5,-0.8c1.5,-0.5 2.7,-1.7 4.3,-1.9c1.2,-0.2 2.5,0.1 3.5,-0.5c0.5,-0.3 0.8,-0.7 1.3,-1.1c0.5,-0.3 1.1,-0.5 1.8,-0.5c2.5,-0.1 5,1.6 5.6,4c0.1,0.6 0.2,1.2 0.4,1.8c0.2,0.6 0.8,1.1 1.4,1c0.2,-1.9 1.9,-3.5 3.8,-3.4c0.1,0.6 -0.3,1.2 -0.8,1.6c-0.5,0.4 -1,0.8 -1.2,1.3s0,1.4 0.6,1.4c0.3,-0.6 0.7,-1.1 1.3,-1.5c1,0.9 0.5,2.7 -0.7,3.1c1.2,-0.4 2.9,-0.5 3.3,0.7c0.1,0.3 0.1,0.7 0.1,1.1c0.2,1.8 2.1,2.9 3.8,3.7c0.3,0.2 0.7,0.3 1.1,0.2c0.6,-0.1 1,-0.8 1.3,-1.3c0.4,-0.5 1.1,-1 1.6,-0.6c0.4,0.4 0.2,1.1 0.6,1.5c0.4,0.6 1.4,0.3 1.9,-0.3s0.8,-1.3 1.4,-1.7c1.2,-0.7 3.3,-0.2 3.7,-1.5c0.2,-0.7 -0.4,-1.4 -0.6,-2.1c-0.3,-1.1 0.4,-2.3 1.3,-3.1s1.9,-1.5 2.4,-2.6c0.8,-1.8 0,-3.9 0.3,-5.9s1.9,-3.9 1.1,-5.7c-0.3,-0.7 -1,-1.3 -1.2,-2c-0.3,-0.7 -0.2,-1.6 -0.6,-2.2c-0.3,-0.4 -0.8,-0.5 -1.2,-0.8c-1.3,-0.9 -1.3,-2.8 -1.8,-4.3c-0.9,-2.8 -3.5,-4.5 -5.3,-6.8c-0.3,-0.4 -0.6,-0.9 -0.8,-1.4c-0.2,-0.6 -0.1,-1.2 -0.1,-1.9c-0.1,-1.5 -1,-2.9 -2.3,-3.7c-0.3,-0.2 -0.6,-0.3 -0.8,-0.6c-0.3,-0.4 -0.3,-0.9 -0.3,-1.4c-0.1,-1.8 -0.8,-3.5 -1.9,-4.8c-0.8,3.9 -1.6,7.8 -2.4,11.6c-0.5,0.3 -1,0.6 -1.6,0.6c-0.2,-1 -0.5,-2 -0.7,-3c-1.1,0.1 -2.3,0.1 -3.3,-0.4s-1.7,-1.7 -1.3,-2.8c0.2,-0.6 0.8,-1.2 0.4,-1.7c1,0.4 1.9,-1.2 1.1,-2c-1.2,-1.2 -2.4,0.6 -3.6,0.5c-1.8,-0.1 -3.1,-2.1 -4.7,-1.2z" class="st0"/>
   <line id="svg_29" fill="none" y2="217.4" x2="453.9" y1="217.7" x1="453.5" class="st1"/>
   <path id="svg_30" fill="#D4E4B5" d="m456.2,264.4c0,0.3 0,0.6 0.2,0.8c0.1,0.1 0.2,0.1 0.3,0.1c0.8,0.1 1.9,-0.1 2.2,-0.8c0.2,-0.6 -0.2,-1.4 0,-2c0.1,-0.2 0.2,-0.4 0.3,-0.6c0.3,-0.5 0.5,-1.1 0.3,-1.6c-0.1,-0.5 -0.7,-1 -1.2,-0.9c-0.3,0.1 -0.6,0.3 -0.9,0.3c-0.9,0.2 -3.7,-1.8 -3.4,0.5c0.1,0.7 1.1,1.3 1.4,1.9c0.6,0.6 0.8,1.5 0.8,2.3z" class="st0"/>
   <path id="svg_31" fill="#D4E4B5" d="m487.6,268.4c-0.6,0.2 -1.3,0.3 -1.9,0.7c-0.5,0.4 -0.8,1.3 -0.2,1.7c0.4,0.3 1,0.2 1.5,0.3c1.1,0.3 1.2,1.8 1.1,3c0.8,0.3 1.6,-0.3 2,-1.1c0.4,-0.7 0.7,-1.6 1.4,-2c0.5,-0.3 1.1,-0.4 1.4,-0.8c0.5,-0.6 0.2,-1.5 0.3,-2.2c0.4,-1.9 3.1,-2 3.8,-3.8c0.5,-1.3 1.4,-3.7 -0.1,-4c-3.6,-0.6 -6.1,7.1 -9.3,8.2z" class="st0"/>
   <path id="svg_32" fill="#D4E4B5" d="m499.3,261.5c0,0.1 0,0.2 0.1,0.3c0.1,0.2 0.5,0.1 0.6,0c1.1,-0.9 0.4,-2.8 1.3,-3.9c0.3,-0.4 0.7,-0.6 1.1,-0.9c1.2,-0.9 1.9,-2.4 1.9,-3.9c-0.5,0.3 -1.1,0.6 -1.7,0.7s-1.3,-0.1 -1.7,-0.6c-0.4,-0.6 -0.3,-1.5 -0.7,-2.1c-0.5,-0.7 -1.5,-0.8 -2.1,-1.5c-0.5,-0.6 -0.6,-1.5 -0.7,-2.3s-0.5,-1.7 -1.3,-1.8c-1.6,1.8 1.5,4.1 1.9,5.6s-0.4,1.9 -1,3.1c-0.6,1.3 -1,2.3 0.2,3.3c0.8,0.6 1.4,-0.3 2.1,0.9c0.4,0.6 0,2.4 0,3.1z" class="st0"/>
   <path id="svg_33" fill="#D4E4B5" d="m417.3,153.8c-0.1,0.3 -0.2,0.5 -0.2,0.8c0,0.9 1.1,1.5 1.1,2.4c0,0.4 -0.1,0.7 -0.1,1.1c0,0.4 0.2,0.8 0.6,0.8c0.3,0 0.5,-0.3 0.8,-0.5c0.2,-0.2 0.6,-0.4 0.8,-0.1c0.1,0.1 0.1,0.3 0.1,0.4c-0.1,1 -0.4,1.9 -0.8,2.8c0.5,0.2 1.1,-0.1 1.4,-0.6s0.3,-1.1 0.4,-1.6c0,-0.3 0,-0.6 -0.1,-0.8c-0.2,-0.4 -0.6,-0.6 -0.9,-0.9c-0.5,-0.6 -0.5,-1.5 -0.2,-2.2s0.8,-1.4 1.1,-2.1c0.1,-0.2 0.1,-0.4 0.1,-0.6c0,-0.2 -0.2,-0.4 -0.2,-0.6c-0.2,-0.5 -0.3,-1 -0.4,-1.5c-0.8,-4.6 -3.2,2.5 -3.5,3.2z" class="st0"/>
   <path id="svg_34" fill="#D4E4B5" d="m426,160.9c0.1,0.8 -0.3,1.7 -0.9,2.2c-0.1,0.1 -0.3,0.2 -0.4,0.4c-0.3,0.6 0.4,1.1 0.9,1.5c1.6,1.2 1.8,3.9 0.4,5.4c-0.1,0.1 -0.3,0.3 -0.4,0.4c-0.1,0.2 -0.1,0.4 -0.1,0.6c0,0.9 0.1,1.7 0.4,2.5c-0.8,0.4 -1.9,-0.3 -2.2,-1.2c-0.3,-0.9 -0.1,-1.9 0,-2.8c0.1,-0.3 0.1,-0.7 -0.1,-1c-0.3,-0.5 -1.1,-0.4 -1.5,0s-0.5,1 -0.7,1.5s-0.4,1.1 -0.9,1.4c-0.4,-1.9 1.2,-3.9 3.1,-4.1c0.4,0 0.9,0 1.2,-0.2c0.4,-0.2 0.6,-0.8 0.3,-1c-0.4,0 -0.5,-0.5 -0.5,-0.8s0.1,-0.8 -0.2,-1c-0.3,-0.2 -0.8,0 -1,0.3s-0.3,0.7 -0.5,1c-0.3,0.5 -0.9,0.8 -1.5,0.6c0,-0.8 0.5,-1.7 1.2,-2c-0.7,-0.2 -1.4,-0.6 -1.6,-1.3c-0.3,-0.7 0.2,-1.6 0.9,-1.5c0.3,0.6 0.5,1.3 0.8,1.9c0.5,0.3 1.3,0 1.6,-0.6c0.3,-0.6 0.3,-1.3 0.2,-1.9c0.7,0.4 1.5,-0.6 1.2,-1.4c-0.2,-0.4 -0.6,-0.7 -1,-0.8c0.8,0.6 1.2,1.2 1.3,1.9z" class="st0"/>
   <path id="svg_35" fill="#D4E4B5" d="m318.7,36.8c0.5,-0.3 0.1,-1.2 -0.4,-1.4c-0.6,-0.2 -1.2,0 -1.8,0c-0.6,0 -1.3,-0.3 -1.4,-0.9c0,-0.2 0,-0.4 0.1,-0.5c0.4,-1 1.6,-1.4 2.4,-2.1c1.2,-1.2 1.3,-3.1 2.4,-4.4c1.5,-1.8 4.2,-1.9 6.1,-3.3c0.6,-0.4 1.1,-1 1.7,-1.4c1.6,-1 3.6,-0.9 5.5,-0.9c2.5,-0.1 4.9,-0.6 7.2,-1.5c-0.5,2.3 -3.2,3.1 -5.5,3.7c-1.5,0.4 -3,0.8 -4.5,1.3c-1.9,0.6 -3.8,1.4 -5.3,2.7c-1.6,1.3 -2.7,3.1 -2.8,5.1c0,1.1 1.2,3.3 0.5,4.1c-0.9,1 -3.3,-0.1 -4.2,-0.5z" class="st0"/>
   <path id="svg_36" fill="#D4E4B5" d="m376.5,10.1c-0.6,0.2 -1.1,0.4 -1.7,0.5c0.5,0.8 1.6,1.2 2.5,0.9c1,-0.3 1.9,-1.2 2.8,-0.8c0.2,0.4 -0.3,0.9 -0.7,1.1c-0.4,0.2 -0.9,0.8 -0.5,1.2c0.1,0.1 0.2,0.1 0.3,0.2c2,0.6 4.3,0.1 6.2,1c0.6,0.3 1.2,0.7 1.8,0.7c0.7,0 1.3,-0.9 0.8,-1.3c-0.3,-0.3 -0.9,-0.3 -1,-0.7c-0.2,-0.8 1.6,-1.1 1.2,-1.8c-1.3,0 -2.6,0.1 -3.9,0.1c-0.4,0 -1,0 -1.2,-0.4c-0.1,-0.2 -0.1,-0.5 -0.2,-0.7c-0.2,-0.2 -0.5,-0.2 -0.8,-0.2c-0.7,0.1 -1.4,0.1 -2.1,0.2c1.5,-0.2 3.5,-0.9 5,-1.3c-2,-2.4 -7.7,-2.2 -8.5,1.3z" class="st0"/>
   <path id="svg_37" fill="#D4E4B5" d="m394.6,13.3c0,-0.8 -1.2,-1.2 -2,-0.8s-1.2,1.1 -1.7,1.8c-0.6,0.8 -1.4,1.5 -2.1,2.2c2,-0.3 3.9,-0.5 5.9,-0.8c0.8,-0.1 1.7,-0.3 1.9,-1c-0.8,-0.5 -1.6,-0.8 -2.6,-0.9" class="st0"/>
   <path id="svg_38" fill="#D4E4B5" d="m446,25.2c0.2,-0.1 0.5,-0.3 0.8,-0.4c1.1,-0.3 2.1,1.3 3.2,1.1c0.5,-0.1 0.8,-0.5 1.3,-0.7c1.1,-0.4 2.3,0.7 3.3,0c1.3,-0.9 0.8,-1.7 -0.3,-2.1c-1,-0.4 -2.4,0 -3.5,-0.3c-0.8,-0.2 -1.5,-0.7 -2.3,-1c-1.8,-0.8 -4.6,-2 -5.8,0.3c-1.2,2 1.2,4.4 3.3,3.1z" class="st0"/>
   <path id="svg_39" fill="#D4E4B5" d="m461.8,24.7c-0.8,-0.6 -1.7,-1.1 -2.7,-1.4c-0.1,0 -0.3,-0.1 -0.4,-0.1c-0.5,0 -0.8,0.7 -0.7,1.2c0.2,0.5 0.7,0.8 1.2,0.9s1,0 1.6,0c1.1,-0.1 2.2,0 3.3,0.3c0.2,-0.7 -0.5,-1.4 -1.2,-1.5s-1.4,0.2 -2,0.5" class="st0"/>
   <path id="svg_40" fill="#D4E4B5" d="m451.7,28.7c-0.6,-0.3 -1.3,-0.5 -1.9,-0.6c-0.4,-0.1 -0.9,0.1 -0.8,0.4c0,0.1 0.2,0.2 0.3,0.3c0.9,0.5 1.9,0.9 2.9,1.2c0.5,0.1 1.1,0.1 1.3,-0.3c0.1,-0.3 -0.1,-0.7 -0.4,-0.9c-0.6,-0.5 -1.5,-0.7 -2.3,-0.5" class="st0"/>
   <path id="svg_41" fill="#D4E4B5" d="m256.9,14.3c0.9,0.5 1.9,0.6 2.8,1c1,0.5 1.8,1.6 2,2.7c0.1,0.7 0.1,1.5 0.5,2.1c0.6,0.9 1.9,0.9 2.7,0.3c0.8,-0.6 1.2,-1.7 1.2,-2.7c0,-0.8 -0.1,-1.7 0.4,-2.3c0.2,-0.2 0.6,-0.4 0.9,-0.5c0.6,-0.2 1.3,-0.4 2,-0.3c0.7,0.1 1.3,0.7 1.3,1.3c0,0.8 -0.9,1.6 -0.6,2.3c1.3,0 2.6,0 3.9,-0.1c0.4,-0.5 0.1,-1.3 -0.4,-1.6c-0.5,-0.4 -1.2,-0.4 -1.8,-0.7c-0.6,-0.3 -1.1,-0.8 -1,-1.5c0.2,-0.9 1.6,-0.8 2.5,-0.8c2.6,0.1 4.9,-2.3 4.8,-4.9c-2.3,-0.3 -3.4,2.1 -5.3,2.8c-1.6,0.5 -2.4,-0.4 -3.8,-0.2c-1.5,0.1 -1.9,1.1 -3.1,1.4c-1.8,0.4 -3.1,-0.5 -5,-0.7c-1.4,-0.1 -7.8,0.1 -4,2.4z" class="st0"/>
   <path id="svg_42" fill="#D4E4B5" d="m234.1,3.5c-1.4,2.5 -3.9,4.4 -6.7,5.2c-1.3,0.4 -2.8,0.5 -3.8,1.5c-0.6,0.6 -1,1.4 -1.3,2.2c-0.6,1.5 -1.3,3.1 -1.3,4.8s0.7,3.4 2.2,4.2c-2.1,1 -2.3,4.5 -0.3,5.7c-0.8,2 -4.1,0.9 -5.7,2.3c-1.2,1.1 -0.7,3.1 0,4.6s1.7,3.2 1.1,4.7c-2.2,-0.9 -4.5,-1.7 -6.7,-2.6c-0.8,1.8 1.6,4.1 3.3,3.1c-1.7,3 -6.2,2.4 -9.4,3.9c-3.4,1.5 -5.2,5.5 -8.6,6.9c-1.7,0.7 -3.6,0.7 -5.3,1.5c-1.7,0.7 -3.1,2.7 -2.3,4.3c0.2,0.3 0.4,0.6 0.4,1s-0.4,0.6 -0.7,0.9c-2.7,2.3 -2.8,6.5 -2.6,10.1c-1,0.7 -2.4,-0.3 -2.9,-1.4s-0.8,-2.4 -1.8,-3.1c-1,-0.7 -2.4,-0.3 -3.5,-0.8c-1,-0.4 -1.7,-1.4 -2.3,-2.4c-1.1,-1.8 -2.2,-3.5 -3.3,-5.3c-0.9,-1.5 -1.9,-3 -2.2,-4.8c-0.3,-1.7 0.4,-3.7 1.9,-4.5c1.1,-0.6 2.9,-1.4 2.1,-2.4c-0.2,-0.2 -0.5,-0.3 -0.7,-0.4c-2,-0.7 -4,-1.4 -6.1,-2.2c0.8,-2.4 3.6,-4 6.1,-3.4c0.9,-1.5 -1.2,-3.1 -2.9,-3c-1.7,0 -3.6,0.7 -5,-0.4c1.3,-1.8 1.2,-4.4 0.2,-6.3c-1,-2 -2.9,-3.4 -5,-4.3c-0.9,-0.4 -1.9,-0.7 -2.9,-0.7c-1.6,0 -3.1,0.7 -4.6,0.7c-2.2,0 -4.3,-1.4 -5.5,-3.3c-1.3,-1.8 -1.9,-4 -2.6,-6.1c1.8,1 4.2,1 5.8,-0.1c1.7,-1.2 2.4,-3.7 1.3,-5.4c2.3,-0.5 4.5,-1 6.8,-1.5c0.6,-0.1 1.2,-0.3 1.7,-0.6c0.6,-0.4 1.1,-1.1 1.6,-1.5c1.1,-0.9 2.6,-1.1 4,-1.3c3.8,-0.4 7.6,-0.8 11.5,-1.3c0.7,-0.1 1.5,-0.2 2.2,0c1.9,0.5 3.6,2.8 5.3,1.8c0.1,-0.7 -0.2,-1.5 -0.6,-2.1c2.1,-1 4.6,-0.7 7,-0.7c4.8,0.1 9.5,-1 14.2,-1.1s9.4,0.9 13.6,2.7c-1.4,1 -3.1,1.7 -4.8,2c1.1,-0.1 2.2,0.1 3.3,0.6c-0.8,-0.3 -4.5,2.6 -5.1,3.1c2,1.6 6.5,-1.7 8.5,-2.7c3.9,-1.7 7.9,-2.8 12.4,-2.1z" class="st0"/>
   <path id="svg_43" fill="#D4E4B5" d="m226.9,54.4c-1.1,0.4 -2.1,1 -3,1.8c-0.8,0.7 -1.7,1.6 -2.8,1.4c-1.1,-0.2 -1.6,-1.4 -2,-2.4c-0.5,-1 -1.4,-2 -2.4,-1.7c0.6,-0.7 1.1,-1.3 1.7,-2c-1.3,-0.2 -2.7,-0.4 -4,-0.6c-0.3,0 -0.7,-0.1 -0.9,-0.4c-0.5,-0.6 0.2,-1.4 1,-1.7c1.7,-0.5 3.5,0.3 4.7,1.5c0.5,0.5 1.2,1.1 1.9,0.9c0.4,-0.2 0.6,-0.7 0.9,-1.1c0.7,-0.9 2,-1 3.2,-0.9c1.9,0.2 5.8,-1.2 6.5,1.1c0.8,2.6 -3.3,3.5 -4.8,4.1z" class="st0"/>
   <path id="svg_44" fill="#D4E4B5" d="m60.9,36.7c-5,2.1 -10.3,4.2 -15.7,4.1c-2.4,0 -4.7,-0.5 -7,-0.9c-5.1,-0.9 -10.2,-1.9 -14.9,-4c-1.3,-0.6 -2.5,-1.2 -3.9,-1.3c-1.5,-0.1 -3,0.5 -4.4,1.2c-4.2,2.1 -8,4.8 -11.2,8.2c3.4,0.5 6.5,2.5 8.6,5.2c-1.6,0.8 -3.8,0.1 -4.6,-1.5c-2.1,-0.6 -4.7,1.1 -4.9,3.3c-0.2,2.2 1.9,4.4 4.2,4.2c0.8,-1 2,-1.8 3.3,-1.9c0.6,1 1.2,2.1 1.8,3.1c-1.1,1.3 -3,1.4 -4.6,1.8c-1.6,0.4 -3.5,1.5 -3.3,3.2c0.3,2.8 5.7,3 5.4,5.8c0.1,-0.9 11.1,-1.7 5.8,4.6c-0.8,1 -2.1,1.7 -3.4,1.6c0.4,1 0.3,2.3 -0.5,3s-2.4,0.5 -2.6,-0.6c-0.9,1.8 -3.2,2.3 -5.2,2.5c-0.2,0.8 -0.5,1.6 -0.7,2.4c-0.2,-1 -1.5,-1.6 -2.4,-1.1s-1,2 -0.2,2.6c0.7,0.6 1.8,0.5 2.7,0.3c0.4,-0.1 0.8,-0.2 1,-0.5c0.1,-0.2 0.1,-0.4 0.1,-0.6c0,-1.1 1,-1.9 2,-2.3s2.1,-0.4 3.1,-0.7c1.7,-0.4 3.2,-1.3 4.6,-2.4c1.5,-1.2 2.8,-2.6 4.5,-3.5c0.6,-0.3 1.3,-0.6 2,-1c4.6,-2.8 1.7,-7.7 8.4,-8.6c0.1,0.9 -0.5,1.9 -1.5,2.2c2.2,1.6 4.5,-3.4 7.1,-2.5c0.7,0.3 1.2,0.9 1.8,1.4c1.1,0.8 2.7,0.8 4.1,0.9c5.6,0.5 10.7,4.6 12.3,10c2.4,-0.7 4.5,1.9 5.7,4.1c2,3.7 4,7.4 6,11.1c1.3,2.3 2.6,4.7 3.2,7.3c0.9,3.7 0.6,7.6 1.5,11.4c0.9,3.7 3.7,7.5 7.6,7.4c0.6,5.8 2.3,11.5 5,16.7c-1.3,1.3 0.8,3.3 2.6,3.8c1.8,0.5 4.1,1.8 3.4,3.5c2.1,-2.3 -0.6,-5.9 -3.1,-7.7c-2.6,-1.8 -5.6,-4.9 -4,-7.6c0.9,-0.9 2.4,0.1 2.8,1.3c0.4,1.2 0.4,2.6 1.2,3.5c0.7,0.8 1.9,1 2.8,1.6c3.4,2 2.7,7.7 6,9.9c1.2,0.8 2.8,1 3.8,2c0.7,0.7 1.1,1.7 1.6,2.7c1.7,3.2 5.2,5 8.5,6.7c1,0.5 1.9,1 2.9,1.4c5.5,2.7 10.9,5.5 16.4,8.2c0.5,0.3 1.1,0.5 1.7,0.3c2.2,-0.9 -2.3,-4.9 -0.4,-6.4c-2.7,-1.3 -5.4,-2.6 -8,-3.9c1.7,-1.5 1.9,-4.3 0.5,-6.1c1,-0.2 1.8,-1.1 2,-2.1c-1.2,-1.2 -3.3,-0.2 -4.3,1.2c-0.9,1.4 -1.3,3.2 -2.5,4.4c-2.8,2.7 -7.7,-0.2 -8.8,-3.9c-1.1,-3.7 0.2,-7.6 0.6,-11.5c0.2,-1.5 0.3,-3.3 1.5,-4.3c2.8,-2.2 6.9,2.4 10.2,1c1.2,-0.6 2,-1.9 3.2,-2.6c2,-1.2 4.8,-0.1 6.2,1.8c1.4,1.9 1.8,4.3 2.1,6.6c0.7,1.1 2.5,-0.1 2.4,-1.4c-0.1,-1.3 -1.1,-2.2 -1.8,-3.3c-1.8,-2.7 -1,-6.8 1.7,-8.6c2.4,-1.7 6.3,-2.3 6.4,-5.2c0.1,-1.9 -1.7,-3.4 -1.7,-5.3c-0.1,-1.6 1.2,-3 2.3,-4.2c3.3,-3.3 6.6,-6.6 9.8,-9.9c0.8,-0.8 1.7,-1.6 2.8,-1.5s1.7,1.9 0.7,2.3c3.9,0.1 9,-0.8 9.3,-4.6c-1.6,1.4 -3.4,2.4 -5.4,3c-0.2,-1.8 0.3,-3.7 1.5,-5.2c-1.4,-2.5 -4.9,-3.2 -7.6,-2.3c-2.7,0.9 -4.9,2.9 -7,4.8c3.1,-3.7 7.4,-6.8 12.2,-7.4c1.8,-0.2 3.8,-0.1 5.4,-1c2.2,-1.3 4.2,-4.5 6.4,-3.3c-1.6,2.8 -3.2,5.7 -4.9,8.5c1.7,-0.1 3.5,-0.3 5.2,-0.4c0.7,1.2 1.1,2.6 1,4c2.1,-0.1 5.1,-1.6 4.1,-3.5c-0.5,-1 -1.8,-1.2 -2.6,-1.9c-2.3,-1.9 -0.5,-5.8 -1.7,-8.6c-0.6,-1.4 -1.8,-2.3 -3,-3.3c-4.9,-4 -8.8,-9.3 -11.1,-15.3c-0.6,1.4 -1.2,2.9 -2.4,3.8s-3.2,0.9 -4,-0.4c-0.4,-0.7 -0.4,-1.6 -0.6,-2.4c-0.5,-1.8 -2.2,-3 -3.9,-3.9c-1.9,-1.2 -4.2,-2.4 -6.4,-1.7s-2.7,4.6 -0.4,5c-2.1,0.1 -2,3.3 -0.8,5.1c1.2,1.7 2.9,3.9 1.7,5.6c-1,1.6 -3.6,1.4 -4.6,3c-1,1.5 0.1,3.4 0.8,5.1c0.8,1.6 0.7,4.2 -1,4.5c-1.5,0.3 -2.6,-1.4 -2.9,-3c-0.4,-2.4 -0.1,-5 -1.2,-7.1c-1.1,-2.1 -4.7,-3.2 -5.8,-1c-0.6,-2.2 -2.4,-4 -4.5,-4.7c-1.8,-0.5 -3.7,-0.4 -5.4,-1.2c-2.5,-1.2 -3.6,-4 -4.5,-6.7c3.3,-1.9 6.7,-4 8.2,-7.4c0.4,-0.9 0.6,-2 1.4,-2.7c0.7,-0.6 1.6,-0.8 2.4,-1.4c0.7,-0.5 1.2,-1.7 0.5,-2.3c1,-0.6 2.1,-0.8 3.2,-0.6c1.9,2.6 -3.9,7 -1.2,8.6c1.5,0.9 3.1,-0.9 3.8,-2.5c1.2,0.5 2.4,1 3.6,1.4c1.5,-1.2 -0.3,-3.6 -2,-4.5c-1.8,-0.9 -4,-2.5 -3.1,-4.3c1.6,0 3.2,-0.1 4.7,-0.1c0.1,-1.5 -0.9,-3 -2.3,-3.5c0.8,-1.3 1.6,-2.5 2.4,-3.8c-0.7,-0.8 -1.9,-1.2 -3,-0.9c3.2,-0.5 6.3,-1.4 9.2,-2.9c2.4,2.7 4.6,5.5 6.7,8.4c0.3,0.5 0.7,1 0.7,1.6c0,1.3 -1.5,1.8 -2.6,2.4c-1.1,0.6 -1.8,2.6 -0.5,2.9c-0.2,0.9 -1.6,0.9 -2.3,0.4s-1.5,-1.3 -2.4,-1.3c-1.8,0.1 -1.5,3.2 0.2,3.8c1.7,0.5 3.4,-0.6 4.9,-1.6c3.3,3 7.3,5.3 11.6,6.7c-1.7,-0.4 -3,-2.2 -2.7,-4c2,0.6 3.9,1.5 5.6,2.7c1.5,-1.8 -0.4,-4.3 -2.3,-5.6c-1.9,-1.3 -4.3,-2.8 -4,-5.1c2.5,-0.1 5,1.4 6.2,3.6c0.9,-1.3 1.9,-2.7 2.8,-4c-1.1,-3.5 -7.9,-2.5 -8.6,-6.1c-0.1,-0.7 0,-1.5 -0.4,-2.1c-0.7,-0.9 -2,-0.4 -3.2,-0.5c-3.9,-0.1 -6.2,-6.6 -9.8,-5.1c1.5,-2.8 -2.8,-6.4 -5.3,-4.4c1.4,0.5 2.9,1.2 3.4,2.6c0.5,1.4 -1,3.2 -2.2,2.5c-1.3,-0.7 -0.7,-2.8 -1.4,-4.1c-0.9,-1.6 -3.5,-1.3 -4.5,0.2s-0.9,3.5 -0.5,5.2c-0.9,0 -1.7,0 -2.6,-0.1c-0.2,-2.4 0.3,-4.9 1.4,-7.1c-1,-1.5 -3.3,-0.1 -4.4,1.4c-1.2,1.5 -2.4,3.1 -2.7,5c-0.4,1.9 0.4,4.1 2.2,4.8c1.1,0.4 2.5,0.2 3.6,0.6c2.6,1 1.6,5.9 -1.2,5.8c-0.9,-1.4 -1.4,-3.1 -1.5,-4.7c-1.4,0.4 -2.6,1.1 -3.7,2c-1.4,-3.4 -3.3,-6.6 -5.6,-9.3c0.6,-1.1 1.1,-2.2 1.7,-3.2c2.3,1 5.1,-1.4 4.6,-3.8c-1.9,-0.5 -3.8,-1.1 -5.7,-0.6c-1.9,0.4 -3.6,2.2 -3.4,4.1c0.2,1.2 1,2.1 1.3,3.2c0.3,1.1 -0.4,2.7 -1.5,2.5c-0.6,2.7 5.2,2.8 5.5,5.6c0.2,2 -2.5,2.7 -4.4,2.7c0.6,1.9 0.5,4 -0.2,5.8c-1.5,-2.8 -0.7,-6.5 1.8,-8.5c-1.5,-2.3 -4.9,-3 -7.2,-1.5c0.9,1.3 2.2,2.3 3.7,2.7c-0.8,0.9 -1.6,1.8 -2.4,2.8c-1.7,-1.2 -4.1,-0.3 -6.2,-0.1c-2.1,0.1 -4.7,-2.2 -3.2,-3.7c-1.3,-0.8 -3,-1 -4.2,-0.2c-1.2,0.9 -1.3,3.1 0,3.7c-2.8,0.7 -7.5,-4.4 -9.5,-0.5c-1.3,-4 -3.3,-5.2 -7.4,-5.4c-2.7,-0.1 -10.6,-2.1 -12,0.1c-1.1,0.1 -2.2,-2.7 -2.2,-2.7z" class="st0"/>
   <path id="svg_45" fill="#D4E4B5" d="m68.4,26.1c-1.5,0.2 -2.4,1.9 -2.6,3.4s0,3.2 -0.8,4.5c-0.2,0.3 -0.4,0.6 -0.5,1c-0.2,1.1 1.2,1.8 2.3,1.6c3.1,-0.5 5.1,-4.7 8.2,-4.2c0,0.8 0.1,1.7 0.1,2.5c2,0 4.1,-0.3 6.1,-0.9c0.6,0.4 0.3,1.4 -0.4,1.7s-1.4,0.2 -2.1,0.3s-1.5,0.4 -1.6,1.2c1.4,-0.4 2.8,-0.8 4.2,-0.5c1.4,0.3 2.7,1.4 2.7,2.9c-2,-0.1 -4,0 -5.9,0.2c1.1,1.3 3.1,1.1 4.7,1.3c1.7,0.2 3.7,1.5 3.1,3.1c2.3,-2.4 6,-3.2 9.1,-1.9c0.8,0.3 1.5,0.7 2.3,0.9s1.8,0 2.2,-0.7s0,-1.9 -0.8,-1.8c1.1,-0.1 2,-1 2.3,-2c-1.8,0.6 -4,-0.4 -4.8,-2.2c-0.7,-1.6 -0.3,-3.7 -1.5,-5c1,0.3 2.1,-0.9 1.8,-2c-0.3,-1.1 -1.4,-1.7 -2.5,-1.8c-0.7,0 -1.5,0.2 -1.9,0.8c-0.4,0.6 -0.3,1.5 0.3,1.9c-0.8,-0.4 -1.7,-0.8 -2.5,-1.2c-0.3,2.1 3.7,3.3 2.8,5.2c-0.6,1.2 -2.7,0.4 -2.9,-0.9c-0.2,-0.9 0,-2 -0.8,-2.4c-1.5,-0.7 -2.6,3 -4.1,2.1c0.1,-0.8 0.2,-1.7 0.3,-2.5c-1.9,-0.1 -3.8,0.5 -5.1,1.8c0.2,-0.8 0.3,-1.6 0.5,-2.4c-2,-1.1 -4,2.8 -6.2,2.1c2.1,0.7 6.8,-3.4 3.1,-5.1c-0.9,-0.4 -2.7,0.2 -3.7,0.2c-1.9,-0.3 -3.7,-1.4 -5.4,-1.2z" class="st0"/>
   <path id="svg_46" fill="#D4E4B5" d="m77.5,17.5c-1.4,-0.7 -3.2,0.1 -4.4,1.1s-2.2,2.4 -3.7,3.1c-0.7,0.3 -1.5,0.5 -1.9,1.1c2.4,0 4.8,-0.2 7.2,-0.5c-0.1,0.8 -0.5,1.6 -1.1,2.1c1.1,0.4 2.1,-1 2.2,-2.2c0,-0.4 0.1,-0.8 0.4,-1c0.2,-0.2 0.6,-0.2 0.9,-0.2c1,-0.2 1.9,-1.1 1.8,-2.1s-1.5,-1.7 -2.3,-1.1" class="st0"/>
   <path id="svg_47" fill="#D4E4B5" d="m85.1,24.2c0.3,-0.2 0.5,-0.5 0.4,-0.9c-1.5,0 -2.9,-1.2 -3.1,-2.7c-0.9,-0.5 -2.2,-0.1 -2.5,0.8c-0.4,0.9 0.3,2.1 1.3,2.3c-1.4,0.6 -2.9,1.2 -4.3,1.9c2.8,1.5 6.1,-1.8 9.1,-1.1c0,0.4 0,0.7 0,1.1c-1.3,0 -2.6,0.6 -3.5,1.6c2.3,0.2 4.6,-0.4 6.6,-1.6c0.5,-0.3 1.1,-0.8 1.7,-0.9s1.1,0.1 1.7,0.2c1.3,0.2 3,-0.6 3,-1.9c-0.9,-0.3 -1.9,-0.4 -2.8,-0.3c-0.3,-1.8 -2.5,-2.9 -4.1,-2.1c0,1.2 0.6,2.4 1.5,3.2c-0.9,0.8 -2.3,0.9 -3.4,0.3c-0.5,-0.3 -1,-0.7 -1.5,-0.7c-0.6,0 -1.4,0.4 -1.7,-0.1" class="st0"/>
   <path id="svg_48" fill="#D4E4B5" d="m86.8,15.4c-2.3,-0.3 -4.6,0.1 -6.6,1.1c1.1,0.5 2.2,1 3.3,1.5c0.3,0.1 0.5,0.2 0.8,0.2c0.2,0 0.5,-0.1 0.7,-0.2c1.1,-0.5 2.1,-0.9 3.2,-1.4c-0.2,-0.3 -0.4,-0.5 -0.6,-0.8c0.5,0.3 1.2,-0.1 1.2,-0.7c0,-0.6 -0.5,-1.1 -1,-1.2c-0.5,-0.2 -1.1,-0.1 -1.7,0.1c-0.7,0.2 -1.3,0.4 -1.9,0.6c0.3,0.7 1,1.2 1.7,1.4c0,0.3 0,0.5 0,0.8" class="st0"/>
   <path id="svg_49" fill="#D4E4B5" d="m102.6,15.8c-0.5,0 -0.8,-0.6 -0.8,-1c0,-0.5 0.1,-1 -0.2,-1.4c-0.6,-1.1 -2.2,-0.3 -3.4,-0.5c-0.7,-0.1 -1.3,-0.6 -2,-0.9s-1.6,-0.1 -1.8,0.6c-0.2,0.8 0.7,1.4 1.5,1.4s1.6,-0.3 2.4,0c0.1,0 0.3,0.1 0.4,0.2c0.6,0.8 -1.5,1.3 -1.3,2.2c0.1,0.5 0.7,0.6 1.1,0.6c0.7,0.1 1.4,0.1 2.1,0.2s1.5,0.1 2.1,-0.3s0.6,-1.5 -0.1,-1.7" class="st0"/>
   <path id="svg_50" fill="#D4E4B5" d="m106.2,23c0.4,-0.5 0.2,-1.2 -0.3,-1.6s-1.2,-0.4 -1.8,-0.4c-1.8,0 -3.6,0.2 -5.3,0.7c-0.5,0.1 -1.1,0.3 -1.6,0.2c-0.5,-0.1 -1.1,-0.6 -0.9,-1.2c-0.7,0.8 0.2,2.2 1.2,2.5c1.1,0.3 2.2,0 3.3,0c1.1,0.1 2.4,0.8 2.3,1.9c0,0.3 -0.1,0.5 0,0.8s0.5,0.4 0.8,0.4c1.5,-0.1 2.6,-1.8 2.1,-3.2c-0.4,0.1 -0.7,-0.2 -0.9,-0.5c0.7,-0.3 1.2,-0.8 1.3,-1.5c-1.2,-0.5 -2.6,-0.3 -3.8,0.3" class="st0"/>
   <path id="svg_51" fill="#D4E4B5" d="m105.6,29.2c0.6,-0.4 0.2,-1.6 -0.5,-1.8c-0.7,-0.2 -1.5,0.2 -2.1,0.6c0,0.6 -0.1,1.3 -0.1,1.9c-0.7,-0.2 -1.5,0 -2.1,0.4c1.1,0.3 2,1.2 2.2,2.3c-1,0.7 -2.6,0.2 -3.1,-0.9c-0.2,-0.5 -0.3,-1.3 -0.8,-1.4c-0.8,-0.3 -1.2,1 -0.9,1.7c0.9,1.9 3.8,1.8 5.4,3.2c0.6,0.5 1.5,1.2 1.9,0.7s-0.1,-1.1 -0.6,-1.5c0.6,0.1 1.2,0.1 1.7,-0.1c0.5,-0.2 0.9,-0.9 0.6,-1.4c-0.1,-0.3 -0.4,-0.4 -0.7,-0.6c-0.9,-0.7 -1.2,-2 -0.7,-3c-0.3,-0.1 -0.6,-0.3 -0.9,-0.4" class="st0"/>
   <path id="svg_52" fill="#D4E4B5" d="m133.8,24.1c-1.9,-1.2 -4.4,-1.5 -6.6,-1c-1.6,0.4 -3.1,1.2 -4.7,1.4c-2.4,0.2 -4.7,-1.3 -6,-3.3c1.8,-1.2 4.5,1.2 6.4,0.1c0.5,-0.3 0.9,-0.9 1.5,-1.1c0.6,-0.3 1.3,-0.2 1.9,0c3.1,0.5 6.1,1.1 9.2,1.6c0.4,-1.3 -0.8,-2.8 -2.1,-2.8c1.6,-0.6 3.2,-1.3 4.8,-1.9c0.8,-0.3 1.7,-0.7 2.1,-1.5c0.4,-0.8 0.1,-2 -0.7,-2.1c3.7,-1.3 7.3,-2.9 10.7,-4.8c-0.3,-0.6 -0.7,-1.2 -1,-1.8c2.4,0.2 4.8,-0.5 6.7,-2c-2.7,-0.2 -5.3,0 -7.9,0.7c4.4,0.6 9,-0.2 13,-2.1c-1.4,-1.3 -4.1,0.4 -5.5,-0.9c-0.4,-0.4 -0.6,-1 -1.1,-1.3c-0.5,-0.5 -1.3,-0.5 -2,-0.6c-7.2,-0.4 -14.4,-0.2 -21.6,0.6c-1.2,0.1 -2.7,0.6 -2.7,1.8c-1.7,-0.1 -3.4,-0.1 -5.2,-0.2c-1.2,1.7 -3.7,2.3 -5.6,1.5c-0.4,0.7 -0.9,1.4 -1.3,2c1.2,0.8 2.7,1.2 4.1,1.1c0.9,1.8 3.8,2.2 5.1,0.7c0.6,2.1 3.7,1.7 5.5,0.6s4.2,-2.6 5.9,-1.3c-2.3,1.8 -5.2,2.7 -8.1,2.5c0.7,0.9 1.4,1.7 2.2,2.6c-1.8,0.1 -3.3,-1 -4.9,-1.9s-3.6,-1.5 -5,-0.4c1.3,1.1 2.6,2.1 3.9,3.2c-3.6,-1.9 -7.1,-3.8 -10.7,-5.6c-1,-0.6 -2.3,-1.1 -3.4,-0.7s-1.4,2.3 -0.3,2.7c-0.9,0.2 -1.6,0.9 -1.9,1.7c2.1,0.2 4.2,0.8 6.1,1.7c-0.9,0.3 -1.8,0.6 -2.7,0.9c2,0.7 4.1,1.3 6.1,2c0.4,0.1 0.9,0.3 1.3,0.1c0.4,-0.2 0.5,-0.7 0.7,-1.1c0.6,-1.1 2.3,-1.6 3.4,-0.9c-0.3,0.6 -0.5,1.2 -0.8,1.8c1,0 1.9,0 2.9,0c0,0.5 0,1.1 0,1.6c1.4,0.2 2.8,0.2 4.2,-0.1c-0.5,1.9 -3.2,2 -4.9,1.1c-1.7,-0.9 -3,-2.5 -4.9,-3.1c0.6,1.4 1.5,2.6 2.7,3.5c-2.5,-0.4 -5.1,-0.2 -7.4,0.7c-0.2,-0.5 -0.5,-1 -0.7,-1.5c-1.9,0.8 -1.6,3.6 -1,5.6c0.2,0.6 0.4,1.2 0.8,1.7c0.9,1.1 2.5,1.2 3.9,1.2c2.1,0.1 4.2,0.1 6.3,0.2c3,0 9.4,1.4 9.3,-2.9z" class="st0"/>
   <path id="svg_53" fill="#D4E4B5" d="m110.7,21.8c0.6,-0.4 1.6,-0.1 1.9,-0.7c0.2,-0.5 -0.3,-1 -0.8,-1.2c-0.5,-0.3 -1,-0.7 -0.9,-1.2c-0.4,0.1 -0.8,0 -1.2,-0.2c0.9,-0.2 1.8,-0.5 2.6,-0.7c0.3,-0.1 0.8,-0.4 0.6,-0.7c-0.1,-0.1 -0.2,-0.1 -0.3,-0.2c-0.5,-0.1 -1.1,-0.2 -1.6,-0.5s-0.7,-1 -0.3,-1.4c-0.3,0 -0.6,-0.1 -0.9,-0.1c0,-0.2 0,-0.5 0,-0.7c-1.6,0 -3.1,-0.2 -4.7,-0.4c-0.2,1 0.8,2.2 1.8,2c0.2,0 0.4,-0.1 0.5,0s0.2,0.3 0.2,0.4c0.2,0.4 0.8,0.6 1.2,0.4c-0.1,0.3 -0.3,0.6 -0.6,0.8c0.5,0.3 1.1,0.4 1.6,0.5c-0.4,0.4 -1,0.6 -1.5,0.7c0.2,0.2 0.5,0.4 0.7,0.6c-0.6,0 -1.2,0 -1.8,0c-0.2,0.6 0.4,1.1 0.9,1.3c0.6,0.2 3.5,2.1 1.8,2.9c-1,0.5 -1.4,-1.2 -1.1,-1.8c0.6,1.3 0.4,3.1 1.4,4.2c0.7,0.8 1.8,1 2.5,-0.1c1.2,-1.7 -1.7,-2.3 -2,-3.9z" class="st0"/>
   <path id="svg_54" fill="#D4E4B5" d="m128.1,166.1c-0.7,1.9 1.5,4 3.4,3.3c0.5,-0.2 1,-0.6 1.5,-0.7c1.6,-0.3 2.5,1.7 2.8,3.3c0.4,1.8 0.8,3.7 0.1,5.4c-0.8,2 -3,3.5 -3.2,5.6c-0.2,1.8 1,3.6 0.4,5.3c-0.3,0.8 -0.9,1.4 -1.2,2.1c-0.5,1.4 0.1,2.9 0.7,4.2c2,4.4 4,8.8 6,13.2c0.5,1 0.9,2 1.8,2.7c0.7,0.5 1.6,0.8 2.3,1.2c1.2,0.8 1.9,2 2.6,3.3c1.3,2.3 2.5,4.6 3.1,7.2c0.7,3.5 0,7.1 -0.6,10.6c-1,5.1 -2,10.2 -3,15.3c-1.1,5.6 -2.2,11.3 -3.3,16.9c1.2,-0.7 2.1,-1.9 2.4,-3.3c0.6,3.7 -0.2,7.5 -2,10.7c-0.2,-1.4 -0.3,-2.8 -0.5,-4.1c-1.4,2.9 -2.1,6.2 -2,9.4c0,0.6 0.1,1.2 0.5,1.6s1,0.5 1.5,0.7c1.1,0.6 1.5,2 1,3.1c0.6,0.1 1.1,0.3 1.7,0.4c0.9,0.7 -1.2,1.7 -1.2,2.8c0,0.5 0.4,0.8 0.7,1.1c1.6,1.4 3.2,2.8 4.8,4.2c1.1,0.3 2.3,0.7 3.4,0.5c1.1,-0.2 2.3,-1 2.4,-2.2c0.1,-1.6 -1.5,-2.6 -2.6,-3.8c-1.6,-1.8 -2.1,-4.5 -1.6,-7s1.5,-4.7 2.7,-6.9c-0.7,-0.3 -1.4,-0.5 -2.2,-0.8c0.1,-1.6 1.7,-2.6 2.8,-3.9c1.9,-2.3 1.7,-6 -0.4,-8c0.8,-0.6 1.6,-1.1 2.4,-1.7c0.7,1 1.3,2.1 2,3.1c1.6,-1.3 2.2,-3.7 1.4,-5.6c3.7,0.9 7.8,-2.1 8.1,-5.9c-0.9,0 -1.6,-1.1 -1.3,-1.9c0.3,-0.9 1.5,-1.2 2.2,-0.7c-0.4,1.1 0.8,2.2 1.9,2.1c1.1,-0.1 2,-1.1 2.3,-2.2c0.4,-1.1 0.4,-2.2 0.6,-3.3c0.3,-1.8 1.1,-3.5 2.3,-4.8c1,-1.1 2.2,-2.1 2.8,-3.5c0.4,-1 0.4,-2.2 0.6,-3.2c0.6,-3.6 3.2,-6.7 6.6,-7.9c0.1,1.6 2.6,1.3 3.8,0.2c1.8,-1.6 2.9,-3.8 3.3,-6.2c0.3,-2.1 0,-4.3 1,-6.1c0.4,-0.8 1,-1.5 1.3,-2.3c0.2,-0.7 0.1,-1.5 0.1,-2.3c0.2,-4.1 4.6,-7.3 4.1,-11.3c-0.3,-2.6 -2.6,-4.5 -4.7,-6.1c-3.2,-2.4 -6.6,-4.9 -10.6,-5.4c-2.5,-0.3 -5.3,0.2 -7.6,-1c1,-0.1 1.7,-1.1 1.8,-2.1s-0.4,-2 -0.8,-2.9c-0.3,-0.6 -0.6,-1.2 -0.9,-1.9c-1.2,-2.5 -3.1,-5.5 -5.9,-5.1c-0.8,0.1 -1.7,0.5 -2.4,0.1c-0.6,-0.4 -0.7,-1.3 -1.1,-2c-1.4,-2.7 -6.5,-1.6 -7.3,-4.4c-0.2,-0.7 0,-1.7 -0.6,-2.2c-0.4,-0.5 -1.1,-0.5 -1.8,-0.4c-2.9,0.1 -5.7,0.2 -8.6,0.3c-0.1,1.1 -0.8,2.2 -1.8,2.6c0.1,0.7 0.3,1.3 0.4,2c-0.2,1.2 -2.2,1 -2.7,0c-0.5,-1.1 0,-2.4 0.6,-3.4s1.3,-2.1 1.3,-3.3c-1.3,-0.6 -2.6,0.7 -3.5,1.8s-2.8,2 -3.6,0.9c0.1,1.2 0.2,2.4 0.3,3.6c-1.8,1.6 -5.2,0.9 -6.2,-1.3c-0.7,0.9 -1.5,1.8 -2.6,2.1s-2.5,-0.4 -2.5,-1.5c0.6,2.4 3,4.3 5.5,4.3" class="st0"/>
   <path id="svg_55" fill="#D4E4B5" d="m125.5,142.6c0.9,0.9 2.2,-0.4 3.5,-0.6c1.2,-0.1 2.2,0.8 3.1,1.6c0.9,0.8 2.3,1.5 3.2,0.7c0.4,1.9 3,2.8 4.5,1.6c-0.1,0.7 0.7,1.1 1.4,1s1.2,-0.5 1.9,-0.6c1,-0.1 1.9,0.8 1.9,1.7c0,0.4 -0.5,0.5 -0.8,0.4s-0.7,-0.3 -1,-0.1c-0.2,0.1 -0.3,0.4 -0.4,0.6c-0.5,0.7 -1.7,0.5 -2.5,0.2c-0.9,-0.3 -2.1,-0.4 -2.4,0.5c2.7,0.5 5.5,0.5 8.2,-0.1c-0.2,0.2 -0.1,0.6 0.2,0.7c0.3,0.1 0.6,0.1 0.9,0c1.1,-0.3 2.3,-0.5 3.4,-0.8c0.7,0.4 1.6,0.4 2.3,0c0,0.3 -0.1,0.6 -0.1,0.9c1.3,0.6 3.1,0 3.8,-1.2c-1.9,-0.3 -3.8,-0.6 -5.7,-0.9c-1.4,-0.2 -2.8,-0.5 -3.9,-1.2c-1.2,-0.7 -2.1,-1.8 -3.4,-2.2c-1.8,-0.6 -3.9,0.3 -5.6,-0.4c-1.7,-0.7 -2.8,-2.8 -4.6,-2.9c-0.6,0 -1.2,0.2 -1.8,0c-1.4,-0.6 -1.2,-1.9 -3,-1.3c-0.6,0.3 -2.8,2.7 -3.1,2.4z" class="st0"/>
   <path id="svg_56" fill="#D4E4B5" d="m277.9,106.6c-0.9,1.8 -1.3,3.8 -0.9,5.7c0.6,3.4 3.2,6.5 2.5,9.8c-1.1,-0.3 -2.3,-0.6 -3.4,-0.9" class="st0"/>
   <path id="svg_57" fill="#D4E4B5" d="m290.1,61.7c-0.1,0.2 -0.2,0.4 -0.2,0.6" class="st0"/>
   <path id="svg_58" fill="#D4E4B5" d="m290.3,60.4c0,-0.8 -0.4,-1.6 -0.9,-2.2" class="st0"/>
  </g>
  <g transform="rotate(87.7016 142.675 146.988)" stroke="null">
   <g stroke="null">
    <path stroke="null" clip-rule="evenodd" fill-rule="evenodd" d="m136.15541,153.20905c0.00145,-0.56584 0.33465,-1.11904 0.87736,-1.73824l-3.13842,-1.91515c-0.19788,-0.08284 -0.19351,-0.19938 -0.07857,-0.33698l0.66493,-0.54759c0.12076,-0.07161 0.2488,-0.1025 0.38703,-0.06599l3.8732,0.63183l3.22718,-3.37257l-7.53396,-4.91845c-0.1906,-0.10811 -0.20661,-0.23027 -0.01018,-0.37208l1.08688,-0.83682l9.82121,2.66352l2.90126,-2.99347c0.97339,-0.81296 1.91914,-1.17661 2.64518,-1.00391c0.40012,0.09548 0.54126,0.21061 0.66493,0.57286c0.24007,0.71046 -0.1324,1.66522 -1.01268,2.64807l-3.10205,2.79971l2.76012,9.47746l-0.86718,1.04884c-0.14695,0.18815 -0.27354,0.1727 -0.38557,-0.00983l-5.0983,-7.26886l-3.4949,3.11282l0.65475,3.73763c0.03783,0.13198 0.00727,0.25554 -0.06838,0.37348l-0.56745,0.64166c-0.14113,0.11092 -0.26335,0.11513 -0.3492,-0.07582l-1.98461,-3.02857c-0.64456,0.52512 -1.21783,0.84665 -1.8071,0.84665c-0.05383,-0.0014 -0.06547,-0.01966 -0.06547,-0.0702l0,0z" class="st0"/>
   </g>
  </g>
 </g>
</svg>